<svg xmlns="http://www.w3.org/2000/svg" width="639.9288940429688" height="509.067626953125" viewBox="-150.00735473632812 -227.1565704345703 639.9288940429688 509.067626953125"><title>Neo4j Graph Visualization</title><desc>Created using Neo4j (http://www.neo4j.com/)</desc><g class="layer relationships"><g class="relationship" transform="translate(460.92152575199407 20.071352978399297) rotate(257.40924210591163)"><path class="outline" fill="#A5ABB6" stroke="none" d="M 25 0.5 L 27.360329704716605 0.5 L 27.360329704716605 -0.5 L 25 -0.5 Z M 56.040017204716605 0.5 L 58.40034690943321 0.5 L 58.40034690943321 3.5 L 65.40034690943321 0 L 58.40034690943321 -3.5 L 58.40034690943321 -0.5 L 56.040017204716605 -0.5 Z"/><text text-anchor="middle" pointer-events="none" font-size="8px" fill="#000000" x="41.700173454716605" y="3" transform="rotate(180 41.700173454716605 0)" font-family="sans-serif">platillo</text></g><g class="relationship" transform="translate(204.0790334211915 252.91105488536164) rotate(329.8404208702575)"><path class="outline" fill="#A5ABB6" stroke="none" d="M 25 0.5 L 50.38726271510453 0.5 L 50.38726271510453 -0.5 L 25 -0.5 Z M 107.52788771510453 0.5 L 132.91515043020905 0.5 L 132.91515043020905 3.5 L 139.91515043020905 0 L 132.91515043020905 -3.5 L 132.91515043020905 -0.5 L 107.52788771510453 -0.5 Z"/><text text-anchor="middle" pointer-events="none" font-size="8px" fill="#000000" x="78.95757521510453" y="3" font-family="sans-serif">platillo_interes</text></g><g class="relationship" transform="translate(204.0790334211915 252.91105488536164) rotate(218.607606682526)"><path class="outline" fill="#A5ABB6" stroke="none" d="M 25 0.5 L 36.469113411830676 0.5 L 36.469113411830676 -0.5 L 25 -0.5 Z M 93.60973841183068 0.5 L 105.07885182366135 0.5 L 105.07885182366135 3.5 L 112.07885182366135 0 L 105.07885182366135 -3.5 L 105.07885182366135 -0.5 L 93.60973841183068 -0.5 Z"/><text text-anchor="middle" pointer-events="none" font-size="8px" fill="#000000" x="65.03942591183068" y="3" transform="rotate(180 65.03942591183068 0)" font-family="sans-serif">platillo_interes</text></g><g class="relationship" transform="translate(-121.00734909933507 100.42031008379331) rotate(410.72509039848205)"><path class="outline" fill="#A5ABB6" stroke="none" d="M 25 0.5 L 50.723496758427075 0.5 L 50.723496758427075 -0.5 L 25 -0.5 Z M 107.86412175842707 0.5 L 133.58761851685415 0.5 L 133.58761851685415 3.5 L 140.58761851685415 0 L 133.58761851685415 -3.5 L 133.58761851685415 -0.5 L 107.86412175842707 -0.5 Z"/><text text-anchor="middle" pointer-events="none" font-size="8px" fill="#000000" x="79.29380925842707" y="3" font-family="sans-serif">platillo_interes</text></g><g class="relationship" transform="translate(-121.00734909933507 100.42031008379331) rotate(359.94156218890043)"><path class="outline" fill="#A5ABB6" stroke="none" d="M 25 0.5 L 31.612108000089513 0.5 L 31.612108000089513 -0.5 L 25 -0.5 Z M 88.7527330000895 0.5 L 95.36484100017903 0.5 L 95.36484100017903 3.5 L 102.36484100017903 0 L 95.36484100017903 -3.5 L 95.36484100017903 -0.5 L 88.7527330000895 -0.5 Z"/><text text-anchor="middle" pointer-events="none" font-size="8px" fill="#000000" x="60.18242050008951" y="3" font-family="sans-serif">platillo_interes</text></g><g class="relationship" transform="translate(39.90796915061402 -62.89669813646831) rotate(436.0845912029859)"><path class="outline" fill="#A5ABB6" stroke="none" d="M 25 0.5 L 86.54731254637876 0.5 L 86.54731254637876 -0.5 L 25 -0.5 Z M 143.68793754637875 0.5 L 205.23525009275752 0.5 L 205.23525009275752 3.5 L 212.23525009275752 0 L 205.23525009275752 -3.5 L 205.23525009275752 -0.5 L 143.68793754637875 -0.5 Z"/><text text-anchor="middle" pointer-events="none" font-size="8px" fill="#000000" x="115.11762504637876" y="3" font-family="sans-serif">platillo_interes</text></g><g class="relationship" transform="translate(39.90796915061402 -62.89669813646831) rotate(357.122663871315)"><path class="outline" fill="#A5ABB6" stroke="none" d="M 25 0.5 L 63.46969265289641 0.5 L 63.46969265289641 -0.5 L 25 -0.5 Z M 92.14938015289641 0.5 L 130.61907280579283 0.5 L 130.61907280579283 3.5 L 137.61907280579283 0 L 130.61907280579283 -3.5 L 130.61907280579283 -0.5 L 92.14938015289641 -0.5 Z"/><text text-anchor="middle" pointer-events="none" font-size="8px" fill="#000000" x="77.80953640289641" y="3" font-family="sans-serif">platillo</text></g><g class="relationship" transform="translate(39.90796915061402 -62.89669813646831) rotate(286.4855919036338)"><path class="outline" fill="#A5ABB6" stroke="none" d="M 25 0.5 L 52.68947476901276 0.5 L 52.68947476901276 -0.5 L 25 -0.5 Z M 81.36916226901276 0.5 L 109.05863703802552 0.5 L 109.05863703802552 3.5 L 116.05863703802552 0 L 109.05863703802552 -3.5 L 109.05863703802552 -0.5 L 81.36916226901276 -0.5 Z"/><text text-anchor="middle" pointer-events="none" font-size="8px" fill="#000000" x="67.02931851901276" y="3" font-family="sans-serif">platillo</text></g><g class="relationship" transform="translate(39.90796915061402 -62.89669813646831) rotate(494.5756000524946)"><path class="outline" fill="#A5ABB6" stroke="none" d="M 25 0.5 L 96.79673943955102 0.5 L 96.79673943955102 -0.5 L 25 -0.5 Z M 125.47642693955102 0.5 L 197.27316637910204 0.5 L 197.27316637910204 3.5 L 204.27316637910204 0 L 197.27316637910204 -3.5 L 197.27316637910204 -0.5 L 125.47642693955102 -0.5 Z"/><text text-anchor="middle" pointer-events="none" font-size="8px" fill="#000000" x="111.13658318955102" y="3" transform="rotate(180 111.13658318955102 0)" font-family="sans-serif">platillo</text></g><g class="relationship" transform="translate(39.90796915061402 -62.89669813646831) rotate(479.216580204313)"><path class="outline" fill="#A5ABB6" stroke="none" d="M 25 0.5 L 27.774734612926203 0.5 L 27.774734612926203 -0.5 L 25 -0.5 Z M 56.4544221129262 0.5 L 59.229156725852405 0.5 L 59.229156725852405 3.5 L 66.2291567258524 0 L 59.229156725852405 -3.5 L 59.229156725852405 -0.5 L 56.4544221129262 -0.5 Z"/><text text-anchor="middle" pointer-events="none" font-size="8px" fill="#000000" x="42.1145783629262" y="3" transform="rotate(180 42.1145783629262 0)" font-family="sans-serif">platillo</text></g><g class="relationship" transform="translate(191.3572203261736 -198.12515672066564) rotate(425.12647224252316)"><path class="outline" fill="#A5ABB6" stroke="none" d="M 25 0.5 L 91.59724950032742 0.5 L 91.59724950032742 -0.5 L 25 -0.5 Z M 120.27693700032742 0.5 L 186.87418650065484 0.5 L 186.87418650065484 3.5 L 193.87418650065484 0 L 186.87418650065484 -3.5 L 186.87418650065484 -0.5 L 120.27693700032742 -0.5 Z"/><text text-anchor="middle" pointer-events="none" font-size="8px" fill="#000000" x="105.93709325032742" y="3" font-family="sans-serif">platillo</text></g><g class="relationship" transform="translate(381.6369612010669 232.54505982749015) rotate(533.4567364705806)"><path class="outline" fill="#A5ABB6" stroke="none" d="M 25 0.5 L 71.52120966839462 0.5 L 71.52120966839462 -0.5 L 25 -0.5 Z M 100.20089716839462 0.5 L 146.72210683678924 0.5 L 146.72210683678924 3.5 L 153.72210683678924 0 L 146.72210683678924 -3.5 L 146.72210683678924 -0.5 L 100.20089716839462 -0.5 Z"/><text text-anchor="middle" pointer-events="none" font-size="8px" fill="#000000" x="85.86105341839462" y="3" transform="rotate(180 85.86105341839462 0)" font-family="sans-serif">platillo</text></g><g class="relationship" transform="translate(401.77769831800634 97.82627396970103) rotate(283.3658620350316)"><path class="outline" fill="#A5ABB6" stroke="none" d="M 25 0.5 L 67.46129861137497 0.5 L 67.46129861137497 -0.5 L 25 -0.5 Z M 96.14098611137497 0.5 L 138.60228472274994 0.5 L 138.60228472274994 3.5 L 145.60228472274994 0 L 138.60228472274994 -3.5 L 138.60228472274994 -0.5 L 96.14098611137497 -0.5 Z"/><text text-anchor="middle" pointer-events="none" font-size="8px" fill="#000000" x="81.80114236137497" y="3" font-family="sans-serif">platillo</text></g><g class="relationship" transform="translate(401.77769831800634 97.82627396970103) rotate(219.44613617228595)"><path class="outline" fill="#A5ABB6" stroke="none" d="M 25 0.5 L 58.79505439642131 0.5 L 58.79505439642131 -0.5 L 25 -0.5 Z M 87.4747418964213 0.5 L 121.26979629284261 0.5 L 121.26979629284261 3.5 L 128.2697962928426 0 L 121.26979629284261 -3.5 L 121.26979629284261 -0.5 L 87.4747418964213 -0.5 Z"/><text text-anchor="middle" pointer-events="none" font-size="8px" fill="#000000" x="73.1348981464213" y="3" transform="rotate(180 73.1348981464213 0)" font-family="sans-serif">platillo</text></g><g class="relationship" transform="translate(401.77769831800634 97.82627396970103) rotate(501.8875778933673)"><path class="outline" fill="#A5ABB6" stroke="none" d="M 25 0.5 L 107.79459756053548 0.5 L 107.79459756053548 -0.5 L 25 -0.5 Z M 136.47428506053546 0.5 L 219.26888262107096 0.5 L 219.26888262107096 3.5 L 226.26888262107096 0 L 219.26888262107096 -3.5 L 219.26888262107096 -0.5 L 136.47428506053546 -0.5 Z"/><text text-anchor="middle" pointer-events="none" font-size="8px" fill="#000000" x="122.13444131053548" y="3" transform="rotate(180 122.13444131053548 0)" font-family="sans-serif">platillo</text></g><g class="relationship" transform="translate(140.19443262366886 -9.751486830519084) rotate(401.0507670032822)"><path class="outline" fill="#A5ABB6" stroke="none" d="M 25 0.5 L 104.8262770136744 0.5 L 104.8262770136744 -0.5 L 25 -0.5 Z M 161.9669020136744 0.5 L 241.7931790273488 0.5 L 241.7931790273488 3.5 L 248.7931790273488 0 L 241.7931790273488 -3.5 L 241.7931790273488 -0.5 L 161.9669020136744 -0.5 Z"/><text text-anchor="middle" pointer-events="none" font-size="8px" fill="#000000" x="133.3965895136744" y="3" font-family="sans-serif">platillo_interes</text></g><g class="relationship" transform="translate(140.19443262366886 -9.751486830519084) rotate(315.38026891296005)"><path class="outline" fill="#A5ABB6" stroke="none" d="M 25 0.5 L 25.802312083526132 0.5 L 25.802312083526132 -0.5 L 25 -0.5 Z M 54.48199958352613 0.5 L 55.284311667052265 0.5 L 55.284311667052265 3.5 L 62.284311667052265 0 L 55.284311667052265 -3.5 L 55.284311667052265 -0.5 L 54.48199958352613 -0.5 Z"/><text text-anchor="middle" pointer-events="none" font-size="8px" fill="#000000" x="40.14215583352613" y="3" font-family="sans-serif">platillo</text></g><g class="relationship" transform="translate(140.19443262366886 -9.751486830519084) rotate(252.26414789693894)"><path class="outline" fill="#A5ABB6" stroke="none" d="M 25 0.5 L 81.06347018813798 0.5 L 81.06347018813798 -0.5 L 25 -0.5 Z M 109.74315768813798 0.5 L 165.80662787627597 0.5 L 165.80662787627597 3.5 L 172.80662787627597 0 L 165.80662787627597 -3.5 L 165.80662787627597 -0.5 L 109.74315768813798 -0.5 Z"/><text text-anchor="middle" pointer-events="none" font-size="8px" fill="#000000" x="95.40331393813798" y="3" transform="rotate(180 95.40331393813798 0)" font-family="sans-serif">platillo</text></g><g class="relationship" transform="translate(140.19443262366886 -9.751486830519084) rotate(366.6683503047069)"><path class="outline" fill="#A5ABB6" stroke="none" d="M 25 0.5 L 100.34210221576429 0.5 L 100.34210221576429 -0.5 L 25 -0.5 Z M 129.02178971576427 0.5 L 204.36389193152857 0.5 L 204.36389193152857 3.5 L 211.36389193152857 0 L 204.36389193152857 -3.5 L 204.36389193152857 -0.5 L 129.02178971576427 -0.5 Z"/><text text-anchor="middle" pointer-events="none" font-size="8px" fill="#000000" x="114.68194596576429" y="3" font-family="sans-serif">platillo</text></g><g class="relationship" transform="translate(140.19443262366886 -9.751486830519084) rotate(364.0725043887238)"><path class="outline" fill="#A5ABB6" stroke="none" d="M 25 0.5 L 53.95389862056285 0.5 L 53.95389862056285 -0.5 L 25 -0.5 Z M 82.63358612056285 0.5 L 111.5874847411257 0.5 L 111.5874847411257 3.5 L 118.5874847411257 0 L 111.5874847411257 -3.5 L 111.5874847411257 -0.5 L 82.63358612056285 -0.5 Z"/><text text-anchor="middle" pointer-events="none" font-size="8px" fill="#000000" x="68.29374237056285" y="3" font-family="sans-serif">platillo</text></g><g class="relationship" transform="translate(140.19443262366886 -9.751486830519084) rotate(262.58068202791446)"><path class="outline" fill="#A5ABB6" stroke="none" d="M 25 0.5 L 36.227957121014974 0.5 L 36.227957121014974 -0.5 L 25 -0.5 Z M 64.90764462101498 0.5 L 76.13560174202995 0.5 L 76.13560174202995 3.5 L 83.13560174202995 0 L 76.13560174202995 -3.5 L 76.13560174202995 -0.5 L 64.90764462101498 -0.5 Z"/><text text-anchor="middle" pointer-events="none" font-size="8px" fill="#000000" x="50.567800871014974" y="3" transform="rotate(180 50.567800871014974 0)" font-family="sans-serif">platillo</text></g><g class="relationship" transform="translate(140.19443262366886 -9.751486830519084) rotate(517.1305628521513)"><path class="outline" fill="#A5ABB6" stroke="none" d="M 25 0.5 L 123.90305343589102 0.5 L 123.90305343589102 -0.5 L 25 -0.5 Z M 152.58274093589102 0.5 L 251.48579437178205 0.5 L 251.48579437178205 3.5 L 258.48579437178205 0 L 251.48579437178205 -3.5 L 251.48579437178205 -0.5 L 152.58274093589102 -0.5 Z"/><text text-anchor="middle" pointer-events="none" font-size="8px" fill="#000000" x="138.24289718589102" y="3" transform="rotate(180 138.24289718589102 0)" font-family="sans-serif">platillo</text></g><g class="relationship" transform="translate(295.6048454476209 -104.26483712359706) rotate(184.2938152707702)"><path class="outline" fill="#A5ABB6" stroke="none" d="M 25 0.5 L 67.08550138011805 0.5 L 67.08550138011805 -0.5 L 25 -0.5 Z M 95.76518888011805 0.5 L 137.8506902602361 0.5 L 137.8506902602361 3.5 L 144.8506902602361 0 L 137.8506902602361 -3.5 L 137.8506902602361 -0.5 L 95.76518888011805 -0.5 Z"/><text text-anchor="middle" pointer-events="none" font-size="8px" fill="#000000" x="81.42534513011805" y="3" transform="rotate(180 81.42534513011805 0)" font-family="sans-serif">platillo</text></g><g class="relationship" transform="translate(295.6048454476209 -104.26483712359706) rotate(456.63781620801205)"><path class="outline" fill="#A5ABB6" stroke="none" d="M 25 0.5 L 34.86885788869742 0.5 L 34.86885788869742 -0.5 L 25 -0.5 Z M 63.54854538869742 0.5 L 73.41740327739484 0.5 L 73.41740327739484 3.5 L 80.41740327739484 0 L 73.41740327739484 -3.5 L 73.41740327739484 -0.5 L 63.54854538869742 -0.5 Z"/><text text-anchor="middle" pointer-events="none" font-size="8px" fill="#000000" x="49.20870163869742" y="3" transform="rotate(180 49.20870163869742 0)" font-family="sans-serif">platillo</text></g><g class="relationship" transform="translate(295.6048454476209 -104.26483712359706) rotate(373.92772887030935)"><path class="outline" fill="#A5ABB6" stroke="none" d="M 25 0.5 L 57.17080463947896 0.5 L 57.17080463947896 -0.5 L 25 -0.5 Z M 85.85049213947896 0.5 L 118.02129677895792 0.5 L 118.02129677895792 3.5 L 125.02129677895792 0 L 118.02129677895792 -3.5 L 118.02129677895792 -0.5 L 85.85049213947896 -0.5 Z"/><text text-anchor="middle" pointer-events="none" font-size="8px" fill="#000000" x="71.51064838947896" y="3" font-family="sans-serif">platillo</text></g><g class="relationship" transform="translate(-87.17598147824988 -43.487612543317404) rotate(317.21461255409037)"><path class="outline" fill="#A5ABB6" stroke="none" d="M 25 0.5 L 94.16260060866355 0.5 L 94.16260060866355 -0.5 L 25 -0.5 Z M 126.54150685866355 0.5 L 195.7041074673271 0.5 L 195.7041074673271 3.5 L 202.7041074673271 0 L 195.7041074673271 -3.5 L 195.7041074673271 -0.5 L 126.54150685866355 -0.5 Z"/><text text-anchor="middle" pointer-events="none" font-size="8px" fill="#000000" x="110.35205373366355" y="3" font-family="sans-serif">Tiempo</text></g><g class="relationship" transform="translate(-87.17598147824988 -43.487612543317404) rotate(396.1066375561051)"><path class="outline" fill="#A5ABB6" stroke="none" d="M 25 0.5 L 33.252388423537525 0.5 L 33.252388423537525 -0.5 L 25 -0.5 Z M 61.928169673537525 0.5 L 70.18055809707505 0.5 L 70.18055809707505 3.5 L 77.18055809707505 0 L 70.18055809707505 -3.5 L 70.18055809707505 -0.5 L 61.928169673537525 -0.5 Z"/><text text-anchor="middle" pointer-events="none" font-size="8px" fill="#000000" x="47.590279048537525" y="3" font-family="sans-serif">Precio</text></g><g class="relationship" transform="translate(-87.17598147824988 -43.487612543317404) rotate(435.3767667010395)"><path class="outline" fill="#A5ABB6" stroke="none" d="M 25 0.5 L 122.76269942471274 0.5 L 122.76269942471274 -0.5 L 25 -0.5 Z M 151.43848067471274 0.5 L 249.20118009942547 0.5 L 249.20118009942547 3.5 L 256.20118009942547 0 L 249.20118009942547 -3.5 L 249.20118009942547 -0.5 L 151.43848067471274 -0.5 Z"/><text text-anchor="middle" pointer-events="none" font-size="8px" fill="#000000" x="137.10059004971274" y="3" font-family="sans-serif">Precio</text></g><g class="relationship" transform="translate(-87.17598147824988 -43.487612543317404) rotate(416.95437229124053)"><path class="outline" fill="#A5ABB6" stroke="none" d="M 25 0.5 L 67.92430535801557 0.5 L 67.92430535801557 -0.5 L 25 -0.5 Z M 96.60008660801557 0.5 L 139.52439196603115 0.5 L 139.52439196603115 3.5 L 146.52439196603115 0 L 139.52439196603115 -3.5 L 139.52439196603115 -0.5 L 96.60008660801557 -0.5 Z"/><text text-anchor="middle" pointer-events="none" font-size="8px" fill="#000000" x="82.26219598301557" y="3" font-family="sans-serif">Precio</text></g><g class="relationship" transform="translate(-87.17598147824988 -43.487612543317404) rotate(463.22945825155455)"><path class="outline" fill="#A5ABB6" stroke="none" d="M 25 0.5 L 56.07768897423519 0.5 L 56.07768897423519 -0.5 L 25 -0.5 Z M 84.75347022423519 0.5 L 115.83115919847037 0.5 L 115.83115919847037 3.5 L 122.83115919847037 0 L 115.83115919847037 -3.5 L 115.83115919847037 -0.5 L 84.75347022423519 -0.5 Z"/><text text-anchor="middle" pointer-events="none" font-size="8px" fill="#000000" x="70.41557959923519" y="3" transform="rotate(180 70.41557959923519 0)" font-family="sans-serif">Precio</text></g><g class="relationship" transform="translate(-87.17598147824988 -43.487612543317404) rotate(408.87096311474147)"><path class="outline" fill="#A5ABB6" stroke="none" d="M 25 0.5 L 122.1350964416182 0.5 L 122.1350964416182 -0.5 L 25 -0.5 Z M 150.8108776916182 0.5 L 247.9459741332364 0.5 L 247.9459741332364 3.5 L 254.9459741332364 0 L 247.9459741332364 -3.5 L 247.9459741332364 -0.5 L 150.8108776916182 -0.5 Z"/><text text-anchor="middle" pointer-events="none" font-size="8px" fill="#000000" x="136.4729870666182" y="3" font-family="sans-serif">Precio</text></g><g class="relationship" transform="translate(-87.17598147824988 -43.487612543317404) rotate(386.20692896757294)"><path class="outline" fill="#A5ABB6" stroke="none" d="M 25 0.5 L 223.93825085638682 0.5 L 223.93825085638682 -0.5 L 25 -0.5 Z M 252.61403210638682 0.5 L 451.55228296277363 0.5 L 451.55228296277363 3.5 L 458.55228296277363 0 L 451.55228296277363 -3.5 L 451.55228296277363 -0.5 L 252.61403210638682 -0.5 Z"/><text text-anchor="middle" pointer-events="none" font-size="8px" fill="#000000" x="238.27614148138682" y="3" font-family="sans-serif">Precio</text></g><g class="relationship" transform="translate(-87.17598147824988 -43.487612543317404) rotate(340.9970592614359)"><path class="outline" fill="#A5ABB6" stroke="none" d="M 25 0.5 L 95.01586356601025 0.5 L 95.01586356601025 -0.5 L 25 -0.5 Z M 123.69164481601025 0.5 L 193.7075083820205 0.5 L 193.7075083820205 3.5 L 200.7075083820205 0 L 193.7075083820205 -3.5 L 193.7075083820205 -0.5 L 123.69164481601025 -0.5 Z"/><text text-anchor="middle" pointer-events="none" font-size="8px" fill="#000000" x="109.35375419101025" y="3" font-family="sans-serif">Precio</text></g><g class="relationship" transform="translate(386.7784975592274 -151.47252814761436) rotate(516.4454931146598)"><path class="outline" fill="#A5ABB6" stroke="none" d="M 25 0.5 L 80.92166881450036 0.5 L 80.92166881450036 -0.5 L 25 -0.5 Z M 113.30057506450036 0.5 L 169.22224387900073 0.5 L 169.22224387900073 3.5 L 176.22224387900073 0 L 169.22224387900073 -3.5 L 169.22224387900073 -0.5 L 113.30057506450036 -0.5 Z"/><text text-anchor="middle" pointer-events="none" font-size="8px" fill="#000000" x="97.11112193950036" y="3" transform="rotate(180 97.11112193950036 0)" font-family="sans-serif">Tiempo</text></g><g class="relationship" transform="translate(386.7784975592274 -151.47252814761436) rotate(453.9965623788755)"><path class="outline" fill="#A5ABB6" stroke="none" d="M 25 0.5 L 65.10079339385521 0.5 L 65.10079339385521 -0.5 L 25 -0.5 Z M 97.47969964385521 0.5 L 137.58049303771043 0.5 L 137.58049303771043 3.5 L 144.58049303771043 0 L 137.58049303771043 -3.5 L 137.58049303771043 -0.5 L 97.47969964385521 -0.5 Z"/><text text-anchor="middle" pointer-events="none" font-size="8px" fill="#000000" x="81.29024651885521" y="3" transform="rotate(180 81.29024651885521 0)" font-family="sans-serif">Tiempo</text></g><g class="relationship" transform="translate(386.7784975592274 -151.47252814761436) rotate(416.840657829422)"><path class="outline" fill="#A5ABB6" stroke="none" d="M 25 0.5 L 31.924531077853878 0.5 L 31.924531077853878 -0.5 L 25 -0.5 Z M 60.60031232785388 0.5 L 67.52484340570776 0.5 L 67.52484340570776 3.5 L 74.52484340570776 0 L 67.52484340570776 -3.5 L 67.52484340570776 -0.5 L 60.60031232785388 -0.5 Z"/><text text-anchor="middle" pointer-events="none" font-size="8px" fill="#000000" x="46.26242170285388" y="3" font-family="sans-serif">Precio</text></g><g class="relationship" transform="translate(386.7784975592274 -151.47252814761436) rotate(484.22978005482616)"><path class="outline" fill="#A5ABB6" stroke="none" d="M 25 0.5 L 74.03474838133252 0.5 L 74.03474838133252 -0.5 L 25 -0.5 Z M 102.71052963133252 0.5 L 151.74527801266504 0.5 L 151.74527801266504 3.5 L 158.74527801266504 0 L 151.74527801266504 -3.5 L 151.74527801266504 -0.5 L 102.71052963133252 -0.5 Z"/><text text-anchor="middle" pointer-events="none" font-size="8px" fill="#000000" x="88.37263900633252" y="3" transform="rotate(180 88.37263900633252 0)" font-family="sans-serif">Precio</text></g><g class="relationship" transform="translate(284.8686090734034 -178.2483777115162) rotate(487.60009704367934)"><path class="outline" fill="#A5ABB6" stroke="none" d="M 25 0.5 L 47.9554334453762 0.5 L 47.9554334453762 -0.5 L 25 -0.5 Z M 80.3343396953762 0.5 L 103.2897731407524 0.5 L 103.2897731407524 3.5 L 110.2897731407524 0 L 103.2897731407524 -3.5 L 103.2897731407524 -0.5 L 80.3343396953762 -0.5 Z"/><text text-anchor="middle" pointer-events="none" font-size="8px" fill="#000000" x="64.1448865703762" y="3" transform="rotate(180 64.1448865703762 0)" font-family="sans-serif">Tiempo</text></g><g class="relationship" transform="translate(284.8686090734034 -178.2483777115162) rotate(425.30807425387286)"><path class="outline" fill="#A5ABB6" stroke="none" d="M 25 0.5 L 88.14186286334638 0.5 L 88.14186286334638 -0.5 L 25 -0.5 Z M 120.52076911334638 0.5 L 183.66263197669275 0.5 L 183.66263197669275 3.5 L 190.66263197669275 0 L 183.66263197669275 -3.5 L 183.66263197669275 -0.5 L 120.52076911334638 -0.5 Z"/><text text-anchor="middle" pointer-events="none" font-size="8px" fill="#000000" x="104.33131598834638" y="3" font-family="sans-serif">Tiempo</text></g><g class="relationship" transform="translate(284.8686090734034 -178.2483777115162) rotate(185.54861355950806)"><path class="outline" fill="#A5ABB6" stroke="none" d="M 25 0.5 L 83.25882660155433 0.5 L 83.25882660155433 -0.5 L 25 -0.5 Z M 115.63773285155433 0.5 L 173.89655945310867 0.5 L 173.89655945310867 3.5 L 180.89655945310867 0 L 173.89655945310867 -3.5 L 173.89655945310867 -0.5 L 115.63773285155433 -0.5 Z"/><text text-anchor="middle" pointer-events="none" font-size="8px" fill="#000000" x="99.44827972655433" y="3" transform="rotate(180 99.44827972655433 0)" font-family="sans-serif">Tiempo</text></g><g class="relationship" transform="translate(284.8686090734034 -178.2483777115162) rotate(395.15169597821296)"><path class="outline" fill="#A5ABB6" stroke="none" d="M 25 0.5 L 77.77186727200701 0.5 L 77.77186727200701 -0.5 L 25 -0.5 Z M 106.44764852200701 0.5 L 159.21951579401403 0.5 L 159.21951579401403 3.5 L 166.21951579401403 0 L 159.21951579401403 -3.5 L 159.21951579401403 -0.5 L 106.44764852200701 -0.5 Z"/><text text-anchor="middle" pointer-events="none" font-size="8px" fill="#000000" x="92.10975789700701" y="3" font-family="sans-serif">Precio</text></g><g class="relationship" transform="translate(284.8686090734034 -178.2483777115162) rotate(450.46467217163445)"><path class="outline" fill="#A5ABB6" stroke="none" d="M 25 0.5 L 71.51219687203879 0.5 L 71.51219687203879 -0.5 L 25 -0.5 Z M 100.18797812203879 0.5 L 146.70017499407757 0.5 L 146.70017499407757 3.5 L 153.70017499407757 0 L 146.70017499407757 -3.5 L 146.70017499407757 -0.5 L 100.18797812203879 -0.5 Z"/><text text-anchor="middle" pointer-events="none" font-size="8px" fill="#000000" x="85.85008749703879" y="3" transform="rotate(180 85.85008749703879 0)" font-family="sans-serif">Precio</text></g><g class="relationship" transform="translate(284.8686090734034 -178.2483777115162) rotate(518.8832043477987)"><path class="outline" fill="#A5ABB6" stroke="none" d="M 25 0.5 L 67.19082061261709 0.5 L 67.19082061261709 -0.5 L 25 -0.5 Z M 95.86660186261709 0.5 L 138.05742247523418 0.5 L 138.05742247523418 3.5 L 145.05742247523418 0 L 138.05742247523418 -3.5 L 138.05742247523418 -0.5 L 95.86660186261709 -0.5 Z"/><text text-anchor="middle" pointer-events="none" font-size="8px" fill="#000000" x="81.52871123761709" y="3" transform="rotate(180 81.52871123761709 0)" font-family="sans-serif">Precio</text></g><g class="relationship" transform="translate(63.10516885149896 245.4188211303857) rotate(363.04219433650155)"><path class="outline" fill="#A5ABB6" stroke="none" d="M 25 0.5 L 48.30320501841173 0.5 L 48.30320501841173 -0.5 L 25 -0.5 Z M 85.86961126841173 0.5 L 109.17281628682346 0.5 L 109.17281628682346 3.5 L 116.17281628682346 0 L 109.17281628682346 -3.5 L 109.17281628682346 -0.5 L 85.86961126841173 -0.5 Z"/><text text-anchor="middle" pointer-events="none" font-size="8px" fill="#000000" x="67.08640814341173" y="3" font-family="sans-serif">Nutricion</text></g><g class="relationship" transform="translate(63.10516885149896 245.4188211303857) rotate(253.50334528909946)"><path class="outline" fill="#A5ABB6" stroke="none" d="M 25 0.5 L 87.18489990245035 0.5 L 87.18489990245035 -0.5 L 25 -0.5 Z M 144.32552490245035 0.5 L 206.5104248049007 0.5 L 206.5104248049007 3.5 L 213.5104248049007 0 L 206.5104248049007 -3.5 L 206.5104248049007 -0.5 L 144.32552490245035 -0.5 Z"/><text text-anchor="middle" pointer-events="none" font-size="8px" fill="#000000" x="115.75521240245035" y="3" transform="rotate(180 115.75521240245035 0)" font-family="sans-serif">platillo_interes</text></g><g class="relationship" transform="translate(63.10516885149896 245.4188211303857) rotate(293.45143023951306)"><path class="outline" fill="#A5ABB6" stroke="none" d="M 25 0.5 L 25.58559547185311 0.5 L 25.58559547185311 -0.5 L 25 -0.5 Z M 52.48403297185311 0.5 L 53.06962844370622 0.5 L 53.06962844370622 3.5 L 60.06962844370622 0 L 53.06962844370622 -3.5 L 53.06962844370622 -0.5 L 52.48403297185311 -0.5 Z"/><text text-anchor="middle" pointer-events="none" font-size="8px" fill="#000000" x="39.03481422185311" y="3" font-family="sans-serif">plat…</text></g><g class="relationship" transform="translate(-110.6564838380729 191.26632608552558) rotate(322.1356651986684)"><path class="outline" fill="#A5ABB6" stroke="none" d="M 25 0.5 L 42.03918915216778 0.5 L 42.03918915216778 -0.5 L 25 -0.5 Z M 99.17981415216778 0.5 L 116.21900330433556 0.5 L 116.21900330433556 3.5 L 123.21900330433556 0 L 116.21900330433556 -3.5 L 116.21900330433556 -0.5 L 99.17981415216778 -0.5 Z"/><text text-anchor="middle" pointer-events="none" font-size="8px" fill="#000000" x="70.60950165216778" y="3" font-family="sans-serif">platillo_interes</text></g><g class="relationship" transform="translate(-110.6564838380729 191.26632608552558) rotate(381.565248933055)"><path class="outline" fill="#A5ABB6" stroke="none" d="M 25 0.5 L 25.838855416221094 0.5 L 25.838855416221094 -0.5 L 25 -0.5 Z M 68.7451054162211 0.5 L 69.58396083244219 0.5 L 69.58396083244219 3.5 L 76.58396083244219 0 L 69.58396083244219 -3.5 L 69.58396083244219 -0.5 L 68.7451054162211 -0.5 Z"/><text text-anchor="middle" pointer-events="none" font-size="8px" fill="#000000" x="47.291980416221094" y="3" font-family="sans-serif">platillo_i…</text></g><g class="relationship" transform="translate(198.52720421773904 141.96786181101191) rotate(447.1351892388707)"><path class="outline" fill="#A5ABB6" stroke="none" d="M 25 0.5 L 33.25780626679254 0.5 L 33.25780626679254 -0.5 L 25 -0.5 Z M 70.82421251679254 0.5 L 79.08201878358508 0.5 L 79.08201878358508 3.5 L 86.08201878358508 0 L 79.08201878358508 -3.5 L 79.08201878358508 -0.5 L 70.82421251679254 -0.5 Z"/><text text-anchor="middle" pointer-events="none" font-size="8px" fill="#000000" x="52.04100939179254" y="3" font-family="sans-serif">Nutricion</text></g><g class="relationship" transform="translate(198.52720421773904 141.96786181101191) rotate(232.2506740994906)"><path class="outline" fill="#A5ABB6" stroke="none" d="M 25 0.5 L 107.26365100098272 0.5 L 107.26365100098272 -0.5 L 25 -0.5 Z M 144.83005725098272 0.5 L 227.09370825196544 0.5 L 227.09370825196544 3.5 L 234.09370825196544 0 L 227.09370825196544 -3.5 L 227.09370825196544 -0.5 L 144.83005725098272 -0.5 Z"/><text text-anchor="middle" pointer-events="none" font-size="8px" fill="#000000" x="126.04685412598272" y="3" transform="rotate(180 126.04685412598272 0)" font-family="sans-serif">Nutricion</text></g><g class="relationship" transform="translate(198.52720421773904 141.96786181101191) rotate(324.84054420923013)"><path class="outline" fill="#A5ABB6" stroke="none" d="M 25 0.5 L 75.83229035220404 0.5 L 75.83229035220404 -0.5 L 25 -0.5 Z M 132.97291535220404 0.5 L 183.80520570440808 0.5 L 183.80520570440808 3.5 L 190.80520570440808 0 L 183.80520570440808 -3.5 L 183.80520570440808 -0.5 L 132.97291535220404 -0.5 Z"/><text text-anchor="middle" pointer-events="none" font-size="8px" fill="#000000" x="104.40260285220404" y="3" font-family="sans-serif">platillo_interes</text></g><g class="relationship" transform="translate(198.52720421773904 141.96786181101191) rotate(250.77798278722435)"><path class="outline" fill="#A5ABB6" stroke="none" d="M 25 0.5 L 148.03265908654546 0.5 L 148.03265908654546 -0.5 L 25 -0.5 Z M 205.17328408654546 0.5 L 328.20594317309093 0.5 L 328.20594317309093 3.5 L 335.20594317309093 0 L 328.20594317309093 -3.5 L 328.20594317309093 -0.5 L 205.17328408654546 -0.5 Z"/><text text-anchor="middle" pointer-events="none" font-size="8px" fill="#000000" x="176.60297158654546" y="3" transform="rotate(180 176.60297158654546 0)" font-family="sans-serif">platillo_interes</text></g><g class="relationship" transform="translate(198.52720421773904 141.96786181101191) rotate(254.40076213472844)"><path class="outline" fill="#A5ABB6" stroke="none" d="M 25 0.5 L 102.35592657264866 0.5 L 102.35592657264866 -0.5 L 25 -0.5 Z M 159.49655157264866 0.5 L 236.8524781452973 0.5 L 236.8524781452973 3.5 L 243.8524781452973 0 L 236.8524781452973 -3.5 L 236.8524781452973 -0.5 L 159.49655157264866 -0.5 Z"/><text text-anchor="middle" pointer-events="none" font-size="8px" fill="#000000" x="130.92623907264866" y="3" transform="rotate(180 130.92623907264866 0)" font-family="sans-serif">platillo_interes</text></g><g class="relationship" transform="translate(198.52720421773904 141.96786181101191) rotate(271.02054486723364)"><path class="outline" fill="#A5ABB6" stroke="none" d="M 25 0.5 L 74.46043277765764 0.5 L 74.46043277765764 -0.5 L 25 -0.5 Z M 131.60105777765764 0.5 L 181.0614905553153 0.5 L 181.0614905553153 3.5 L 188.0614905553153 0 L 181.0614905553153 -3.5 L 181.0614905553153 -0.5 L 131.60105777765764 -0.5 Z"/><text text-anchor="middle" pointer-events="none" font-size="8px" fill="#000000" x="103.03074527765764" y="3" font-family="sans-serif">platillo_interes</text></g><g class="relationship" transform="translate(198.52720421773904 141.96786181101191) rotate(192.2367042470189)"><path class="outline" fill="#A5ABB6" stroke="none" d="M 25 0.5 L 66.24834552802196 0.5 L 66.24834552802196 -0.5 L 25 -0.5 Z M 123.38897052802196 0.5 L 164.63731605604391 0.5 L 164.63731605604391 3.5 L 171.63731605604391 0 L 164.63731605604391 -3.5 L 164.63731605604391 -0.5 L 123.38897052802196 -0.5 Z"/><text text-anchor="middle" pointer-events="none" font-size="8px" fill="#000000" x="94.81865802802196" y="3" transform="rotate(180 94.81865802802196 0)" font-family="sans-serif">platillo_interes</text></g><g class="relationship" transform="translate(198.52720421773904 141.96786181101191) rotate(518.0257003124752)"><path class="outline" fill="#A5ABB6" stroke="none" d="M 25 0.5 L 83.69516493921364 0.5 L 83.69516493921364 -0.5 L 25 -0.5 Z M 140.83578993921364 0.5 L 199.53095487842728 0.5 L 199.53095487842728 3.5 L 206.53095487842728 0 L 199.53095487842728 -3.5 L 199.53095487842728 -0.5 L 140.83578993921364 -0.5 Z"/><text text-anchor="middle" pointer-events="none" font-size="8px" fill="#000000" x="112.26547743921364" y="3" transform="rotate(180 112.26547743921364 0)" font-family="sans-serif">platillo_interes</text></g><g class="relationship" transform="translate(198.52720421773904 141.96786181101191) rotate(211.65382240262994)"><path class="outline" fill="#A5ABB6" stroke="none" d="M 25 0.5 L 87.25599668205659 0.5 L 87.25599668205659 -0.5 L 25 -0.5 Z M 144.3966216820566 0.5 L 206.65261836411318 0.5 L 206.65261836411318 3.5 L 213.65261836411318 0 L 206.65261836411318 -3.5 L 206.65261836411318 -0.5 L 144.3966216820566 -0.5 Z"/><text text-anchor="middle" pointer-events="none" font-size="8px" fill="#000000" x="115.82630918205659" y="3" transform="rotate(180 115.82630918205659 0)" font-family="sans-serif">platillo_interes</text></g><g class="relationship" transform="translate(198.52720421773904 141.96786181101191) rotate(300.9575008019051)"><path class="outline" fill="#A5ABB6" stroke="none" d="M 25 0.5 L 50.44504561604201 0.5 L 50.44504561604201 -0.5 L 25 -0.5 Z M 107.58567061604201 0.5 L 133.03071623208402 0.5 L 133.03071623208402 3.5 L 140.03071623208402 0 L 133.03071623208402 -3.5 L 133.03071623208402 -0.5 L 107.58567061604201 -0.5 Z"/><text text-anchor="middle" pointer-events="none" font-size="8px" fill="#000000" x="79.01535811604201" y="3" font-family="sans-serif">platillo_interes</text></g><g class="relationship" transform="translate(198.52720421773904 141.96786181101191) rotate(319.1135342064799)"><path class="outline" fill="#A5ABB6" stroke="none" d="M 25 0.5 L 128.43611936267894 0.5 L 128.43611936267894 -0.5 L 25 -0.5 Z M 185.57674436267894 0.5 L 289.0128637253579 0.5 L 289.0128637253579 3.5 L 296.0128637253579 0 L 289.0128637253579 -3.5 L 289.0128637253579 -0.5 L 185.57674436267894 -0.5 Z"/><text text-anchor="middle" pointer-events="none" font-size="8px" fill="#000000" x="157.00643186267894" y="3" font-family="sans-serif">platillo_interes</text></g><g class="relationship" transform="translate(198.52720421773904 141.96786181101191) rotate(370.7359844217012)"><path class="outline" fill="#A5ABB6" stroke="none" d="M 25 0.5 L 43.32049147690671 0.5 L 43.32049147690671 -0.5 L 25 -0.5 Z M 100.46111647690671 0.5 L 118.78160795381342 0.5 L 118.78160795381342 3.5 L 125.78160795381342 0 L 118.78160795381342 -3.5 L 118.78160795381342 -0.5 L 100.46111647690671 -0.5 Z"/><text text-anchor="middle" pointer-events="none" font-size="8px" fill="#000000" x="71.89080397690671" y="3" font-family="sans-serif">platillo_interes</text></g><g class="relationship" transform="translate(118.8644863216867 49.73598602405494) rotate(234.96920133498816)"><path class="outline" fill="#A5ABB6" stroke="none" d="M 25 0.5 L 50.93756492599958 0.5 L 50.93756492599958 -0.5 L 25 -0.5 Z M 79.61334617599958 0.5 L 105.55091110199916 0.5 L 105.55091110199916 3.5 L 112.55091110199916 0 L 105.55091110199916 -3.5 L 105.55091110199916 -0.5 L 79.61334617599958 -0.5 Z"/><text text-anchor="middle" pointer-events="none" font-size="8px" fill="#000000" x="65.27545555099958" y="3" transform="rotate(180 65.27545555099958 0)" font-family="sans-serif">Precio</text></g><g class="relationship" transform="translate(118.8644863216867 49.73598602405494) rotate(339.9113973801449)"><path class="outline" fill="#A5ABB6" stroke="none" d="M 25 0.5 L 153.77831704368018 0.5 L 153.77831704368018 -0.5 L 25 -0.5 Z M 182.45409829368018 0.5 L 311.23241533736035 0.5 L 311.23241533736035 3.5 L 318.23241533736035 0 L 311.23241533736035 -3.5 L 311.23241533736035 -0.5 L 182.45409829368018 -0.5 Z"/><text text-anchor="middle" pointer-events="none" font-size="8px" fill="#000000" x="168.11620766868018" y="3" font-family="sans-serif">Precio</text></g><g class="relationship" transform="translate(118.8644863216867 49.73598602405494) rotate(289.7259036487936)"><path class="outline" fill="#A5ABB6" stroke="none" d="M 25 0.5 L 28.097966848632538 0.5 L 28.097966848632538 -0.5 L 25 -0.5 Z M 28.097966848632538 0.5 L 31.195933697265076 0.5 L 31.195933697265076 3.5 L 38.195933697265076 0 L 31.195933697265076 -3.5 L 31.195933697265076 -0.5 L 28.097966848632538 -0.5 Z"/><text text-anchor="middle" pointer-events="none" font-size="8px" fill="#000000" x="28.097966848632538" y="3" font-family="sans-serif"/></g><g class="relationship" transform="translate(118.8644863216867 49.73598602405494) rotate(343.3251623934226)"><path class="outline" fill="#A5ABB6" stroke="none" d="M 25 0.5 L 68.05130496311756 0.5 L 68.05130496311756 -0.5 L 25 -0.5 Z M 96.72708621311756 0.5 L 139.77839117623512 0.5 L 139.77839117623512 3.5 L 146.77839117623512 0 L 139.77839117623512 -3.5 L 139.77839117623512 -0.5 L 96.72708621311756 -0.5 Z"/><text text-anchor="middle" pointer-events="none" font-size="8px" fill="#000000" x="82.38919558811756" y="3" font-family="sans-serif">Precio</text></g><g class="relationship" transform="translate(118.8644863216867 49.73598602405494) rotate(460.54741593409415)"><path class="outline" fill="#A5ABB6" stroke="none" d="M 25 0.5 L 41.993102270294045 0.5 L 41.993102270294045 -0.5 L 25 -0.5 Z M 70.66888352029405 0.5 L 87.66198579058809 0.5 L 87.66198579058809 3.5 L 94.66198579058809 0 L 87.66198579058809 -3.5 L 87.66198579058809 -0.5 L 70.66888352029405 -0.5 Z"/><text text-anchor="middle" pointer-events="none" font-size="8px" fill="#000000" x="56.330992895294045" y="3" transform="rotate(180 56.330992895294045 0)" font-family="sans-serif">Precio</text></g><g class="relationship" transform="translate(118.8644863216867 49.73598602405494) rotate(194.96600784198654)"><path class="outline" fill="#A5ABB6" stroke="none" d="M 25 0.5 L 46.07332114524494 0.5 L 46.07332114524494 -0.5 L 25 -0.5 Z M 74.74910239524493 0.5 L 95.82242354048988 0.5 L 95.82242354048988 3.5 L 102.82242354048988 0 L 95.82242354048988 -3.5 L 95.82242354048988 -0.5 L 74.74910239524493 -0.5 Z"/><text text-anchor="middle" pointer-events="none" font-size="8px" fill="#000000" x="60.41121177024494" y="3" transform="rotate(180 60.41121177024494 0)" font-family="sans-serif">Precio</text></g><g class="relationship" transform="translate(118.8644863216867 49.73598602405494) rotate(272.5299613536334)"><path class="outline" fill="#A5ABB6" stroke="none" d="M 25 0.5 L 65.60230501260943 0.5 L 65.60230501260943 -0.5 L 25 -0.5 Z M 94.27808626260943 0.5 L 134.88039127521887 0.5 L 134.88039127521887 3.5 L 141.88039127521887 0 L 134.88039127521887 -3.5 L 134.88039127521887 -0.5 L 94.27808626260943 -0.5 Z"/><text text-anchor="middle" pointer-events="none" font-size="8px" fill="#000000" x="79.94019563760943" y="3" font-family="sans-serif">Precio</text></g><g class="relationship" transform="translate(118.8644863216867 49.73598602405494) rotate(487.0532406052232)"><path class="outline" fill="#A5ABB6" stroke="none" d="M 25 0.5 L 94.22450047720005 0.5 L 94.22450047720005 -0.5 L 25 -0.5 Z M 122.90028172720005 0.5 L 192.1247822044001 0.5 L 192.1247822044001 3.5 L 199.1247822044001 0 L 192.1247822044001 -3.5 L 192.1247822044001 -0.5 L 122.90028172720005 -0.5 Z"/><text text-anchor="middle" pointer-events="none" font-size="8px" fill="#000000" x="108.56239110220005" y="3" transform="rotate(180 108.56239110220005 0)" font-family="sans-serif">Precio</text></g><g class="relationship" transform="translate(118.8644863216867 49.73598602405494) rotate(515.803498628901)"><path class="outline" fill="#A5ABB6" stroke="none" d="M 25 0.5 L 43.8337968417553 0.5 L 43.8337968417553 -0.5 L 25 -0.5 Z M 72.5095780917553 0.5 L 91.3433749335106 0.5 L 91.3433749335106 3.5 L 98.3433749335106 0 L 91.3433749335106 -3.5 L 91.3433749335106 -0.5 L 72.5095780917553 -0.5 Z"/><text text-anchor="middle" pointer-events="none" font-size="8px" fill="#000000" x="58.1716874667553" y="3" transform="rotate(180 58.1716874667553 0)" font-family="sans-serif">Precio</text></g><g class="relationship" transform="translate(118.8644863216867 49.73598602405494) rotate(528.069037071449)"><path class="outline" fill="#A5ABB6" stroke="none" d="M 25 0.5 L 104.74616026829763 0.5 L 104.74616026829763 -0.5 L 25 -0.5 Z M 133.42194151829761 0.5 L 213.16810178659526 0.5 L 213.16810178659526 3.5 L 220.16810178659526 0 L 213.16810178659526 -3.5 L 213.16810178659526 -0.5 L 133.42194151829761 -0.5 Z"/><text text-anchor="middle" pointer-events="none" font-size="8px" fill="#000000" x="119.08405089329763" y="3" transform="rotate(180 119.08405089329763 0)" font-family="sans-serif">Precio</text></g><g class="relationship" transform="translate(-34.021907173974384 -138.90185952897883) rotate(405.7929933196358)"><path class="outline" fill="#A5ABB6" stroke="none" d="M 25 0.5 L 35.17722790658142 0.5 L 35.17722790658142 -0.5 L 25 -0.5 Z M 63.85300915658142 0.5 L 74.03023706316284 0.5 L 74.03023706316284 3.5 L 81.03023706316284 0 L 74.03023706316284 -3.5 L 74.03023706316284 -0.5 L 63.85300915658142 -0.5 Z"/><text text-anchor="middle" pointer-events="none" font-size="8px" fill="#000000" x="49.51511853158142" y="3" font-family="sans-serif">Precio</text></g><g class="relationship" transform="translate(-34.021907173974384 -138.90185952897883) rotate(396.55034677686757)"><path class="outline" fill="#A5ABB6" stroke="none" d="M 25 0.5 L 90.59544352626428 0.5 L 90.59544352626428 -0.5 L 25 -0.5 Z M 119.27122477626428 0.5 L 184.86666830252855 0.5 L 184.86666830252855 3.5 L 191.86666830252855 0 L 184.86666830252855 -3.5 L 184.86666830252855 -0.5 L 119.27122477626428 -0.5 Z"/><text text-anchor="middle" pointer-events="none" font-size="8px" fill="#000000" x="104.93333415126428" y="3" font-family="sans-serif">Precio</text></g><g class="relationship" transform="translate(-34.021907173974384 -138.90185952897883) rotate(383.70012224995946)"><path class="outline" fill="#A5ABB6" stroke="none" d="M 25 0.5 L 155.501919661759 0.5 L 155.501919661759 -0.5 L 25 -0.5 Z M 184.177700911759 0.5 L 314.679620573518 0.5 L 314.679620573518 3.5 L 321.679620573518 0 L 314.679620573518 -3.5 L 314.679620573518 -0.5 L 184.177700911759 -0.5 Z"/><text text-anchor="middle" pointer-events="none" font-size="8px" fill="#000000" x="169.839810286759" y="3" font-family="sans-serif">Precio</text></g><g class="relationship" transform="translate(-34.021907173974384 -138.90185952897883) rotate(426.84561776261626)"><path class="outline" fill="#A5ABB6" stroke="none" d="M 25 0.5 L 148.71734772070775 0.5 L 148.71734772070775 -0.5 L 25 -0.5 Z M 177.39312897070775 0.5 L 301.1104766914155 0.5 L 301.1104766914155 3.5 L 308.1104766914155 0 L 301.1104766914155 -3.5 L 301.1104766914155 -0.5 L 177.39312897070775 -0.5 Z"/><text text-anchor="middle" pointer-events="none" font-size="8px" fill="#000000" x="163.05523834570775" y="3" font-family="sans-serif">Precio</text></g><g class="relationship" transform="translate(-34.021907173974384 -138.90185952897883) rotate(439.30229286186693)"><path class="outline" fill="#A5ABB6" stroke="none" d="M 25 0.5 L 61.352532882222945 0.5 L 61.352532882222945 -0.5 L 25 -0.5 Z M 90.02831413222295 0.5 L 126.38084701444589 0.5 L 126.38084701444589 3.5 L 133.3808470144459 0 L 126.38084701444589 -3.5 L 126.38084701444589 -0.5 L 90.02831413222295 -0.5 Z"/><text text-anchor="middle" pointer-events="none" font-size="8px" fill="#000000" x="75.69042350722295" y="3" font-family="sans-serif">Precio</text></g><g class="relationship" transform="translate(237.58800010205888 64.19190807473178) rotate(212.73698717056163)"><path class="outline" fill="#A5ABB6" stroke="none" d="M 25 0.5 L 99.66626724363637 0.5 L 99.66626724363637 -0.5 L 25 -0.5 Z M 128.34204849363636 0.5 L 203.00831573727274 0.5 L 203.00831573727274 3.5 L 210.00831573727274 0 L 203.00831573727274 -3.5 L 203.00831573727274 -0.5 L 128.34204849363636 -0.5 Z"/><text text-anchor="middle" pointer-events="none" font-size="8px" fill="#000000" x="114.00415786863637" y="3" transform="rotate(180 114.00415786863637 0)" font-family="sans-serif">Precio</text></g><g class="relationship" transform="translate(237.58800010205888 64.19190807473178) rotate(326.9782978692029)"><path class="outline" fill="#A5ABB6" stroke="none" d="M 25 0.5 L 103.59098429974304 0.5 L 103.59098429974304 -0.5 L 25 -0.5 Z M 132.26676554974304 0.5 L 210.85774984948608 0.5 L 210.85774984948608 3.5 L 217.85774984948608 0 L 210.85774984948608 -3.5 L 210.85774984948608 -0.5 L 132.26676554974304 -0.5 Z"/><text text-anchor="middle" pointer-events="none" font-size="8px" fill="#000000" x="117.92887492474304" y="3" font-family="sans-serif">Precio</text></g><g class="relationship" transform="translate(237.58800010205888 64.19190807473178) rotate(217.20658856781552)"><path class="outline" fill="#A5ABB6" stroke="none" d="M 25 0.5 L 43.30361049388322 0.5 L 43.30361049388322 -0.5 L 25 -0.5 Z M 71.97939174388321 0.5 L 90.28300223776644 0.5 L 90.28300223776644 3.5 L 97.28300223776644 0 L 90.28300223776644 -3.5 L 90.28300223776644 -0.5 L 71.97939174388321 -0.5 Z"/><text text-anchor="middle" pointer-events="none" font-size="8px" fill="#000000" x="57.64150111888322" y="3" transform="rotate(180 57.64150111888322 0)" font-family="sans-serif">Precio</text></g><g class="relationship" transform="translate(237.58800010205888 64.19190807473178) rotate(305.7149445341737)"><path class="outline" fill="#A5ABB6" stroke="none" d="M 25 0.5 L 26.087808249726606 0.5 L 26.087808249726606 -0.5 L 25 -0.5 Z M 45.423745749726606 0.5 L 46.51155399945321 0.5 L 46.51155399945321 3.5 L 53.51155399945321 0 L 46.51155399945321 -3.5 L 46.51155399945321 -0.5 L 45.423745749726606 -0.5 Z"/><text text-anchor="middle" pointer-events="none" font-size="8px" fill="#000000" x="35.755776999726606" y="3" font-family="sans-serif">P…</text></g><g class="relationship" transform="translate(237.58800010205888 64.19190807473178) rotate(503.73096715637746)"><path class="outline" fill="#A5ABB6" stroke="none" d="M 25 0.5 L 69.37318917672971 0.5 L 69.37318917672971 -0.5 L 25 -0.5 Z M 98.04897042672971 0.5 L 142.42215960345942 0.5 L 142.42215960345942 3.5 L 149.42215960345942 0 L 142.42215960345942 -3.5 L 142.42215960345942 -0.5 L 98.04897042672971 -0.5 Z"/><text text-anchor="middle" pointer-events="none" font-size="8px" fill="#000000" x="83.71107980172971" y="3" transform="rotate(180 83.71107980172971 0)" font-family="sans-serif">Precio</text></g><g class="relationship" transform="translate(237.58800010205888 64.19190807473178) rotate(191.08765613203798)"><path class="outline" fill="#A5ABB6" stroke="none" d="M 25 0.5 L 105.57068900136983 0.5 L 105.57068900136983 -0.5 L 25 -0.5 Z M 134.24647025136983 0.5 L 214.81715925273966 0.5 L 214.81715925273966 3.5 L 221.81715925273966 0 L 214.81715925273966 -3.5 L 214.81715925273966 -0.5 L 134.24647025136983 -0.5 Z"/><text text-anchor="middle" pointer-events="none" font-size="8px" fill="#000000" x="119.90857962636983" y="3" transform="rotate(180 119.90857962636983 0)" font-family="sans-serif">Precio</text></g><g class="relationship" transform="translate(237.58800010205888 64.19190807473178) rotate(238.42332900207845)"><path class="outline" fill="#A5ABB6" stroke="none" d="M 25 0.5 L 88.4921358051988 0.5 L 88.4921358051988 -0.5 L 25 -0.5 Z M 117.1679170551988 0.5 L 180.6600528603976 0.5 L 180.6600528603976 3.5 L 187.6600528603976 0 L 180.6600528603976 -3.5 L 180.6600528603976 -0.5 L 117.1679170551988 -0.5 Z"/><text text-anchor="middle" pointer-events="none" font-size="8px" fill="#000000" x="102.8300264301988" y="3" transform="rotate(180 102.8300264301988 0)" font-family="sans-serif">Precio</text></g><g class="relationship" transform="translate(237.58800010205888 64.19190807473178) rotate(341.3004864031982)"><path class="outline" fill="#A5ABB6" stroke="none" d="M 25 0.5 L 54.6755303339404 0.5 L 54.6755303339404 -0.5 L 25 -0.5 Z M 83.3513115839404 0.5 L 113.0268419178808 0.5 L 113.0268419178808 3.5 L 120.0268419178808 0 L 113.0268419178808 -3.5 L 113.0268419178808 -0.5 L 83.3513115839404 -0.5 Z"/><text text-anchor="middle" pointer-events="none" font-size="8px" fill="#000000" x="69.0134209589404" y="3" font-family="sans-serif">Precio</text></g><g class="relationship" transform="translate(237.58800010205888 64.19190807473178) rotate(255.38590428880326)"><path class="outline" fill="#A5ABB6" stroke="none" d="M 25 0.5 L 52.04902144174876 0.5 L 52.04902144174876 -0.5 L 25 -0.5 Z M 80.72480269174876 0.5 L 107.77382413349753 0.5 L 107.77382413349753 3.5 L 114.77382413349753 0 L 107.77382413349753 -3.5 L 107.77382413349753 -0.5 L 80.72480269174876 -0.5 Z"/><text text-anchor="middle" pointer-events="none" font-size="8px" fill="#000000" x="66.38691206674876" y="3" transform="rotate(180 66.38691206674876 0)" font-family="sans-serif">Precio</text></g></g><g class="layer nodes"><g class="node" transform="translate(283.41935593768676,0.44592048588728517)"><circle class="outline" cx="0" cy="0" r="25" fill="#ECB5C9" stroke="#da7298" stroke-width="2px"/><text text-anchor="middle" pointer-events="none" font-family="sans-serif" dy="1.5625" font-size="25" fill="#2A2C34"/><text text-anchor="middle" pointer-events="none" x="0" y="5" font-size="10px" fill="#2A2C34" font-family="sans-serif"> pizza</text></g><g class="node" transform="translate(-4.6220992718806855,16.72636412063205)"><circle class="outline" cx="0" cy="0" r="25" fill="#ECB5C9" stroke="#da7298" stroke-width="2px"/><text text-anchor="middle" pointer-events="none" font-family="sans-serif" dy="1.5625" font-size="25" fill="#2A2C34"/><text text-anchor="middle" pointer-events="none" x="0" y="5" font-size="10px" fill="#2A2C34" font-family="sans-serif"> Sushi</text></g><g class="node" transform="translate(460.92152575199407,20.071352978399297)"><circle class="outline" cx="0" cy="0" r="25" fill="#ECB5C9" stroke="#da7298" stroke-width="2px"/><text text-anchor="middle" pointer-events="none" font-family="sans-serif" dy="1.5625" font-size="25" fill="#2A2C34"/><text text-anchor="middle" pointer-events="none" x="0" y="5" font-size="10px" fill="#2A2C34" font-family="sans-serif"> Pasta</text></g><g class="node" transform="translate(441.2155321714996,-68.1550406821793)"><circle class="outline" cx="0" cy="0" r="25" fill="#ECB5C9" stroke="#da7298" stroke-width="2px"/><text text-anchor="middle" pointer-events="none" font-family="sans-serif" dy="1.5625" font-size="25" fill="#2A2C34"/><text text-anchor="middle" pointer-events="none" x="0" y="5" font-size="10px" fill="#2A2C34" font-family="sans-serif"> Lasaña</text></g><g class="node" transform="translate(204.0790334211915,252.91105488536164)"><circle class="outline" cx="0" cy="0" r="25" fill="#ECB5C9" stroke="#da7298" stroke-width="2px"/><text text-anchor="middle" pointer-events="none" font-family="sans-serif" dy="1.5625" font-size="25" fill="#2A2C34"/><text text-anchor="middle" pointer-events="none" x="0" y="5" font-size="10px" fill="#2A2C34" font-family="sans-serif"> Ensalada</text></g><g class="node" transform="translate(346.669530222213,170.05601844546644)"><circle class="outline" cx="0" cy="0" r="25" fill="#ECB5C9" stroke="#da7298" stroke-width="2px"/><text text-anchor="middle" pointer-events="none" font-family="sans-serif" dy="1.5625" font-size="25" fill="#2A2C34"/><text text-anchor="middle" pointer-events="none" font-family="sans-serif" dy="1.5625" font-size="25" fill="#2A2C34"/><text text-anchor="middle" pointer-events="none" x="0" y="0" font-size="10px" fill="#2A2C34" font-family="sans-serif"> Ensalada</text><text text-anchor="middle" pointer-events="none" x="0" y="10" font-size="10px" fill="#2A2C34" font-family="sans-serif"> de pollo</text></g><g class="node" transform="translate(96.9604591989472,167.37613409924737)"><circle class="outline" cx="0" cy="0" r="25" fill="#ECB5C9" stroke="#da7298" stroke-width="2px"/><text text-anchor="middle" pointer-events="none" font-family="sans-serif" dy="1.5625" font-size="25" fill="#2A2C34"/><text text-anchor="middle" pointer-events="none" font-family="sans-serif" dy="1.5625" font-size="25" fill="#2A2C34"/><text text-anchor="middle" pointer-events="none" x="0" y="0" font-size="10px" fill="#2A2C34" font-family="sans-serif"> Ensalada</text><text text-anchor="middle" pointer-events="none" x="0" y="10" font-size="10px" fill="#2A2C34" font-family="sans-serif"> de Atun</text></g><g class="node" transform="translate(-121.00734909933507,100.42031008379331)"><circle class="outline" cx="0" cy="0" r="25" fill="#ECB5C9" stroke="#da7298" stroke-width="2px"/><text text-anchor="middle" pointer-events="none" font-family="sans-serif" dy="1.5625" font-size="25" fill="#2A2C34"/><text text-anchor="middle" pointer-events="none" x="0" y="5" font-size="10px" fill="#2A2C34" font-family="sans-serif"> Tacos</text></g><g class="node" transform="translate(6.3574256544656835,100.29040660238638)"><circle class="outline" cx="0" cy="0" r="25" fill="#ECB5C9" stroke="#da7298" stroke-width="2px"/><text text-anchor="middle" pointer-events="none" font-family="sans-serif" dy="1.5625" font-size="25" fill="#2A2C34"/><text text-anchor="middle" pointer-events="none" font-family="sans-serif" dy="1.5625" font-size="25" fill="#2A2C34"/><text text-anchor="middle" pointer-events="none" x="0" y="0" font-size="10px" fill="#2A2C34" font-family="sans-serif"> Tacos de</text><text text-anchor="middle" pointer-events="none" x="0" y="10" font-size="10px" fill="#2A2C34" font-family="sans-serif"> res</text></g><g class="node" transform="translate(-16.183441917516767,228.60458325808239)"><circle class="outline" cx="0" cy="0" r="25" fill="#ECB5C9" stroke="#da7298" stroke-width="2px"/><text text-anchor="middle" pointer-events="none" font-family="sans-serif" dy="1.5625" font-size="25" fill="#2A2C34"/><text text-anchor="middle" pointer-events="none" font-family="sans-serif" dy="1.5625" font-size="25" fill="#2A2C34"/><text text-anchor="middle" pointer-events="none" x="0" y="0" font-size="10px" fill="#2A2C34" font-family="sans-serif"> Tacos al</text><text text-anchor="middle" pointer-events="none" x="0" y="10" font-size="10px" fill="#2A2C34" font-family="sans-serif"> pastor</text></g><g class="node" transform="translate(126.2308885021248,-116.98174282049891)"><circle class="outline" cx="0" cy="0" r="25" fill="#ECB5C9" stroke="#da7298" stroke-width="2px"/><text text-anchor="middle" pointer-events="none" font-family="sans-serif" dy="1.5625" font-size="25" fill="#2A2C34"/><text text-anchor="middle" pointer-events="none" x="0" y="5" font-size="10px" fill="#2A2C34" font-family="sans-serif"> Hambur…</text></g><g class="node" transform="translate(39.90796915061402,-62.89669813646831)"><circle class="outline" cx="0" cy="0" r="25" fill="#ECB5C9" stroke="#da7298" stroke-width="2px"/><text text-anchor="middle" pointer-events="none" font-family="sans-serif" dy="1.5625" font-size="25" fill="#2A2C34"/><text text-anchor="middle" pointer-events="none" x="0" y="5" font-size="10px" fill="#2A2C34" font-family="sans-serif"> Mariscos</text></g><g class="node" transform="translate(191.3572203261736,-198.12515672066564)"><circle class="outline" cx="0" cy="0" r="25" fill="#ECB5C9" stroke="#da7298" stroke-width="2px"/><text text-anchor="middle" pointer-events="none" font-family="sans-serif" dy="1.5625" font-size="25" fill="#2A2C34"/><text text-anchor="middle" pointer-events="none" x="0" y="5" font-size="10px" fill="#2A2C34" font-family="sans-serif"> Pan</text></g><g class="node" transform="translate(202.3220267175141,-71.05983141183626)"><circle class="outline" cx="0" cy="0" r="25" fill="#ECB5C9" stroke="#da7298" stroke-width="2px"/><text text-anchor="middle" pointer-events="none" font-family="sans-serif" dy="1.5625" font-size="25" fill="#2A2C34"/><text text-anchor="middle" pointer-events="none" x="0" y="5" font-size="10px" fill="#2A2C34" font-family="sans-serif"> Curry</text></g><g class="node" transform="translate(79.93677421066899,-198.15657337110522)"><circle class="outline" cx="0" cy="0" r="25" fill="#ECB5C9" stroke="#da7298" stroke-width="2px"/><text text-anchor="middle" pointer-events="none" font-family="sans-serif" dy="1.5625" font-size="25" fill="#2A2C34"/><text text-anchor="middle" pointer-events="none" x="0" y="5" font-size="10px" fill="#2A2C34" font-family="sans-serif"> Chaomin</text></g><g class="node" transform="translate(381.6369612010669,232.54505982749015)"><circle class="outline" cx="0" cy="0" r="25" fill="#ECB5C9" stroke="#da7298" stroke-width="2px"/><text text-anchor="middle" pointer-events="none" font-family="sans-serif" dy="1.5625" font-size="25" fill="#2A2C34"/><text text-anchor="middle" pointer-events="none" x="0" y="5" font-size="10px" fill="#2A2C34" font-family="sans-serif"> Lechuga</text></g><g class="node" transform="translate(401.77769831800634,97.82627396970103)"><circle class="outline" cx="0" cy="0" r="25" fill="#ECB5C9" stroke="#da7298" stroke-width="2px"/><text text-anchor="middle" pointer-events="none" font-family="sans-serif" dy="1.5625" font-size="25" fill="#2A2C34"/><text text-anchor="middle" pointer-events="none" x="0" y="5" font-size="10px" fill="#2A2C34" font-family="sans-serif"> Tomate</text></g><g class="node" transform="translate(140.19443262366886,-9.751486830519084)"><circle class="outline" cx="0" cy="0" r="25" fill="#ECB5C9" stroke="#da7298" stroke-width="2px"/><text text-anchor="middle" pointer-events="none" font-family="sans-serif" dy="1.5625" font-size="25" fill="#2A2C34"/><text text-anchor="middle" pointer-events="none" x="0" y="5" font-size="10px" fill="#2A2C34" font-family="sans-serif"> Carne</text></g><g class="node" transform="translate(374.95931004364616,17.695584761954045)"><circle class="outline" cx="0" cy="0" r="25" fill="#ECB5C9" stroke="#da7298" stroke-width="2px"/><text text-anchor="middle" pointer-events="none" font-family="sans-serif" dy="1.5625" font-size="25" fill="#2A2C34"/><text text-anchor="middle" pointer-events="none" x="0" y="5" font-size="10px" fill="#2A2C34" font-family="sans-serif"> Milanesa</text></g><g class="node" transform="translate(295.6048454476209,-104.26483712359706)"><circle class="outline" cx="0" cy="0" r="25" fill="#ECB5C9" stroke="#da7298" stroke-width="2px"/><text text-anchor="middle" pointer-events="none" font-family="sans-serif" dy="1.5625" font-size="25" fill="#2A2C34"/><text text-anchor="middle" pointer-events="none" x="0" y="5" font-size="10px" fill="#2A2C34" font-family="sans-serif"> Queso</text></g><g class="node" transform="translate(-87.17598147824988,-43.487612543317404)"><circle class="outline" cx="0" cy="0" r="25" fill="#57C7E3" stroke="#23b3d7" stroke-width="2px"/><text text-anchor="middle" pointer-events="none" font-family="sans-serif" dy="1.5625" font-size="25" fill="#2A2C34"/><text text-anchor="middle" pointer-events="none" x="0" y="5" font-size="10px" fill="#2A2C34" font-family="sans-serif"> fast</text></g><g class="node" transform="translate(386.7784975592274,-151.47252814761436)"><circle class="outline" cx="0" cy="0" r="25" fill="#57C7E3" stroke="#23b3d7" stroke-width="2px"/><text text-anchor="middle" pointer-events="none" font-family="sans-serif" dy="1.5625" font-size="25" fill="#2A2C34"/><text text-anchor="middle" pointer-events="none" x="0" y="5" font-size="10px" fill="#2A2C34" font-family="sans-serif"> slow</text></g><g class="node" transform="translate(284.8686090734034,-178.2483777115162)"><circle class="outline" cx="0" cy="0" r="25" fill="#57C7E3" stroke="#23b3d7" stroke-width="2px"/><text text-anchor="middle" pointer-events="none" font-family="sans-serif" dy="1.5625" font-size="25" fill="#2A2C34"/><text text-anchor="middle" pointer-events="none" x="0" y="5" font-size="10px" fill="#2A2C34" font-family="sans-serif"> medium</text></g><g class="node" transform="translate(63.10516885149896,245.4188211303857)"><circle class="outline" cx="0" cy="0" r="25" fill="#FFC454" stroke="#d7a013" stroke-width="2px"/><text text-anchor="middle" pointer-events="none" font-family="sans-serif" dy="1.5625" font-size="25" fill="#2A2C34"/><text text-anchor="middle" pointer-events="none" x="0" y="5" font-size="10px" fill="#2A2C34" font-family="sans-serif"> alta</text></g><g class="node" transform="translate(-110.6564838380729,191.26632608552558)"><circle class="outline" cx="0" cy="0" r="25" fill="#FFC454" stroke="#d7a013" stroke-width="2px"/><text text-anchor="middle" pointer-events="none" font-family="sans-serif" dy="1.5625" font-size="25" fill="#2A2C34"/><text text-anchor="middle" pointer-events="none" x="0" y="5" font-size="10px" fill="#2A2C34" font-family="sans-serif"> baja</text></g><g class="node" transform="translate(198.52720421773904,141.96786181101191)"><circle class="outline" cx="0" cy="0" r="25" fill="#FFC454" stroke="#d7a013" stroke-width="2px"/><text text-anchor="middle" pointer-events="none" font-family="sans-serif" dy="1.5625" font-size="25" fill="#2A2C34"/><text text-anchor="middle" pointer-events="none" x="0" y="5" font-size="10px" fill="#2A2C34" font-family="sans-serif"> media</text></g><g class="node" transform="translate(118.8644863216867,49.73598602405494)"><circle class="outline" cx="0" cy="0" r="25" fill="#8DCC93" stroke="#5db665" stroke-width="2px"/><text text-anchor="middle" pointer-events="none" font-family="sans-serif" dy="1.5625" font-size="25" fill="#2A2C34"/><text text-anchor="middle" pointer-events="none" x="0" y="5" font-size="10px" fill="#2A2C34" font-family="sans-serif"> barato</text></g><g class="node" transform="translate(-34.021907173974384,-138.90185952897883)"><circle class="outline" cx="0" cy="0" r="25" fill="#8DCC93" stroke="#5db665" stroke-width="2px"/><text text-anchor="middle" pointer-events="none" font-family="sans-serif" dy="1.5625" font-size="25" fill="#2A2C34"/><text text-anchor="middle" pointer-events="none" x="0" y="5" font-size="10px" fill="#2A2C34" font-family="sans-serif"> caro</text></g><g class="node" transform="translate(237.58800010205888,64.19190807473178)"><circle class="outline" cx="0" cy="0" r="25" fill="#8DCC93" stroke="#5db665" stroke-width="2px"/><text text-anchor="middle" pointer-events="none" font-family="sans-serif" dy="1.5625" font-size="25" fill="#2A2C34"/><text text-anchor="middle" pointer-events="none" x="0" y="5" font-size="10px" fill="#2A2C34" font-family="sans-serif"> medio</text></g></g></svg>