<svg xmlns="http://www.w3.org/2000/svg" width="583.592041015625" height="650.6991577148438" viewBox="-210.32823181152344 -214.00144958496094 583.592041015625 650.6991577148438"><title>Neo4j Graph Visualization</title><desc>Created using Neo4j (http://www.neo4j.com/)</desc><g class="layer relationships"><g class="relationship" transform="translate(219.444542637203 407.69773540331073) rotate(196.5892174700561)"><path class="outline" fill="#A5ABB6" stroke="none" d="M 25 0.5 L 41.49026977733292 0.5 L 41.49026977733292 -0.5 L 25 -0.5 Z M 70.16995727733291 0.5 L 86.66022705466584 0.5 L 86.66022705466584 3.5 L 93.66022705466584 0 L 86.66022705466584 -3.5 L 86.66022705466584 -0.5 L 70.16995727733291 -0.5 Z"/><text text-anchor="middle" pointer-events="none" font-size="8px" fill="#000000" x="55.83011352733292" y="3" transform="rotate(180 55.83011352733292 0)" font-family="sans-serif">platillo</text></g><g class="relationship" transform="translate(222.62149719472674 140.06773339698827) rotate(190.95504438778073)"><path class="outline" fill="#A5ABB6" stroke="none" d="M 25 0.5 L 32.566902102529525 0.5 L 32.566902102529525 -0.5 L 25 -0.5 Z M 89.70752710252953 0.5 L 97.27442920505905 0.5 L 97.27442920505905 3.5 L 104.27442920505905 0 L 97.27442920505905 -3.5 L 97.27442920505905 -0.5 L 89.70752710252953 -0.5 Z"/><text text-anchor="middle" pointer-events="none" font-size="8px" fill="#000000" x="61.137214602529525" y="3" transform="rotate(180 61.137214602529525 0)" font-family="sans-serif">platillo_interes</text></g><g class="relationship" transform="translate(222.62149719472674 140.06773339698827) rotate(262.50889421046344)"><path class="outline" fill="#A5ABB6" stroke="none" d="M 25 0.5 L 42.12339410405271 0.5 L 42.12339410405271 -0.5 L 25 -0.5 Z M 99.26401910405271 0.5 L 116.38741320810541 0.5 L 116.38741320810541 3.5 L 123.38741320810541 0 L 116.38741320810541 -3.5 L 116.38741320810541 -0.5 L 99.26401910405271 -0.5 Z"/><text text-anchor="middle" pointer-events="none" font-size="8px" fill="#000000" x="70.69370660405271" y="3" transform="rotate(180 70.69370660405271 0)" font-family="sans-serif">platillo_interes</text></g><g class="relationship" transform="translate(-61.49552228591708 -51.39455438449706) rotate(255.4429245120457)"><path class="outline" fill="#A5ABB6" stroke="none" d="M 25 0.5 L 27.479998083857815 0.5 L 27.479998083857815 -0.5 L 25 -0.5 Z M 84.62062308385782 0.5 L 87.10062116771563 0.5 L 87.10062116771563 3.5 L 94.10062116771563 0 L 87.10062116771563 -3.5 L 87.10062116771563 -0.5 L 84.62062308385782 -0.5 Z"/><text text-anchor="middle" pointer-events="none" font-size="8px" fill="#000000" x="56.050310583857815" y="3" transform="rotate(180 56.050310583857815 0)" font-family="sans-serif">platillo_interes</text></g><g class="relationship" transform="translate(-61.49552228591708 -51.39455438449706) rotate(184.9725520528948)"><path class="outline" fill="#A5ABB6" stroke="none" d="M 25 0.5 L 28.072387848049217 0.5 L 28.072387848049217 -0.5 L 25 -0.5 Z M 85.21301284804922 0.5 L 88.28540069609843 0.5 L 88.28540069609843 3.5 L 95.28540069609843 0 L 88.28540069609843 -3.5 L 88.28540069609843 -0.5 L 85.21301284804922 -0.5 Z"/><text text-anchor="middle" pointer-events="none" font-size="8px" fill="#000000" x="56.64270034804922" y="3" transform="rotate(180 56.64270034804922 0)" font-family="sans-serif">platillo_interes</text></g><g class="relationship" transform="translate(82.39622096470065 -95.25859488257377) rotate(396.1180715478084)"><path class="outline" fill="#A5ABB6" stroke="none" d="M 25 0.5 L 42.74961230471213 0.5 L 42.74961230471213 -0.5 L 25 -0.5 Z M 99.89023730471213 0.5 L 117.63984960942426 0.5 L 117.63984960942426 3.5 L 124.63984960942426 0 L 117.63984960942426 -3.5 L 117.63984960942426 -0.5 L 99.89023730471213 -0.5 Z"/><text text-anchor="middle" pointer-events="none" font-size="8px" fill="#000000" x="71.31992480471213" y="3" font-family="sans-serif">platillo_interes</text></g><g class="relationship" transform="translate(82.39622096470065 -95.25859488257377) rotate(501.27515677673637)"><path class="outline" fill="#A5ABB6" stroke="none" d="M 25 0.5 L 41.04396698997079 0.5 L 41.04396698997079 -0.5 L 25 -0.5 Z M 69.72365448997078 0.5 L 85.76762147994158 0.5 L 85.76762147994158 3.5 L 92.76762147994158 0 L 85.76762147994158 -3.5 L 85.76762147994158 -0.5 L 69.72365448997078 -0.5 Z"/><text text-anchor="middle" pointer-events="none" font-size="8px" fill="#000000" x="55.38381073997079" y="3" transform="rotate(180 55.38381073997079 0)" font-family="sans-serif">platillo</text></g><g class="relationship" transform="translate(82.39622096470065 -95.25859488257377) rotate(471.2517960145549)"><path class="outline" fill="#A5ABB6" stroke="none" d="M 25 0.5 L 38.820407990877314 0.5 L 38.820407990877314 -0.5 L 25 -0.5 Z M 67.50009549087731 0.5 L 81.32050348175463 0.5 L 81.32050348175463 3.5 L 88.32050348175463 0 L 81.32050348175463 -3.5 L 81.32050348175463 -0.5 L 67.50009549087731 -0.5 Z"/><text text-anchor="middle" pointer-events="none" font-size="8px" fill="#000000" x="53.160251740877314" y="3" transform="rotate(180 53.160251740877314 0)" font-family="sans-serif">platillo</text></g><g class="relationship" transform="translate(82.39622096470065 -95.25859488257377) rotate(523.0466519137078)"><path class="outline" fill="#A5ABB6" stroke="none" d="M 25 0.5 L 57.37466253788075 0.5 L 57.37466253788075 -0.5 L 25 -0.5 Z M 86.05435003788075 0.5 L 118.4290125757615 0.5 L 118.4290125757615 3.5 L 125.4290125757615 0 L 118.4290125757615 -3.5 L 118.4290125757615 -0.5 L 86.05435003788075 -0.5 Z"/><text text-anchor="middle" pointer-events="none" font-size="8px" fill="#000000" x="71.71450628788075" y="3" transform="rotate(180 71.71450628788075 0)" font-family="sans-serif">platillo</text></g><g class="relationship" transform="translate(82.39622096470065 -95.25859488257377) rotate(311.80252687406494)"><path class="outline" fill="#A5ABB6" stroke="none" d="M 25 0.5 L 42.35418035376991 0.5 L 42.35418035376991 -0.5 L 25 -0.5 Z M 71.03386785376992 0.5 L 88.38804820753982 0.5 L 88.38804820753982 3.5 L 95.38804820753982 0 L 88.38804820753982 -3.5 L 88.38804820753982 -0.5 L 71.03386785376992 -0.5 Z"/><text text-anchor="middle" pointer-events="none" font-size="8px" fill="#000000" x="56.69402410376991" y="3" font-family="sans-serif">platillo</text></g><g class="relationship" transform="translate(15.359817707822556 321.3323358188628) rotate(223.84843238201825)"><path class="outline" fill="#A5ABB6" stroke="none" d="M 25 0.5 L 40.08810996014258 0.5 L 40.08810996014258 -0.5 L 25 -0.5 Z M 68.76779746014259 0.5 L 83.85590742028516 0.5 L 83.85590742028516 3.5 L 90.85590742028516 0 L 83.85590742028516 -3.5 L 83.85590742028516 -0.5 L 68.76779746014259 -0.5 Z"/><text text-anchor="middle" pointer-events="none" font-size="8px" fill="#000000" x="54.42795371014258" y="3" transform="rotate(180 54.42795371014258 0)" font-family="sans-serif">platillo</text></g><g class="relationship" transform="translate(344.26379430370093 119.57745404217826) rotate(530.4384581630372)"><path class="outline" fill="#A5ABB6" stroke="none" d="M 25 0.5 L 43.83815069288478 0.5 L 43.83815069288478 -0.5 L 25 -0.5 Z M 72.51783819288478 0.5 L 91.35598888576956 0.5 L 91.35598888576956 3.5 L 98.35598888576956 0 L 91.35598888576956 -3.5 L 91.35598888576956 -0.5 L 72.51783819288478 -0.5 Z"/><text text-anchor="middle" pointer-events="none" font-size="8px" fill="#000000" x="58.17799444288478" y="3" transform="rotate(180 58.17799444288478 0)" font-family="sans-serif">platillo</text></g><g class="relationship" transform="translate(109.91942896705747 245.8202694194156) rotate(451.8775863750242)"><path class="outline" fill="#A5ABB6" stroke="none" d="M 25 0.5 L 46.19404548625974 0.5 L 46.19404548625974 -0.5 L 25 -0.5 Z M 74.87373298625974 0.5 L 96.06777847251948 0.5 L 96.06777847251948 3.5 L 103.06777847251948 0 L 96.06777847251948 -3.5 L 96.06777847251948 -0.5 L 74.87373298625974 -0.5 Z"/><text text-anchor="middle" pointer-events="none" font-size="8px" fill="#000000" x="60.53388923625974" y="3" transform="rotate(180 60.53388923625974 0)" font-family="sans-serif">platillo</text></g><g class="relationship" transform="translate(109.91942896705747 245.8202694194156) rotate(181.52682211178217)"><path class="outline" fill="#A5ABB6" stroke="none" d="M 25 0.5 L 71.2477775891427 0.5 L 71.2477775891427 -0.5 L 25 -0.5 Z M 99.9274650891427 0.5 L 146.1752426782854 0.5 L 146.1752426782854 3.5 L 153.1752426782854 0 L 146.1752426782854 -3.5 L 146.1752426782854 -0.5 L 99.9274650891427 -0.5 Z"/><text text-anchor="middle" pointer-events="none" font-size="8px" fill="#000000" x="85.5876213391427" y="3" transform="rotate(180 85.5876213391427 0)" font-family="sans-serif">platillo</text></g><g class="relationship" transform="translate(109.91942896705747 245.8202694194156) rotate(316.82209309010307)"><path class="outline" fill="#A5ABB6" stroke="none" d="M 25 0.5 L 59.43459422590671 0.5 L 59.43459422590671 -0.5 L 25 -0.5 Z M 88.11428172590671 0.5 L 122.54887595181341 0.5 L 122.54887595181341 3.5 L 129.54887595181341 0 L 122.54887595181341 -3.5 L 122.54887595181341 -0.5 L 88.11428172590671 -0.5 Z"/><text text-anchor="middle" pointer-events="none" font-size="8px" fill="#000000" x="73.77443797590671" y="3" font-family="sans-serif">platillo</text></g><g class="relationship" transform="translate(-62.691738269619705 94.47354291956665) rotate(367.56185742566703)"><path class="outline" fill="#A5ABB6" stroke="none" d="M 25 0.5 L 47.821793248371364 0.5 L 47.821793248371364 -0.5 L 25 -0.5 Z M 104.96241824837136 0.5 L 127.78421149674273 0.5 L 127.78421149674273 3.5 L 134.78421149674273 0 L 127.78421149674273 -3.5 L 127.78421149674273 -0.5 L 104.96241824837136 -0.5 Z"/><text text-anchor="middle" pointer-events="none" font-size="8px" fill="#000000" x="76.39210574837136" y="3" font-family="sans-serif">platillo_interes</text></g><g class="relationship" transform="translate(-62.691738269619705 94.47354291956665) rotate(294.63040841983076)"><path class="outline" fill="#A5ABB6" stroke="none" d="M 25 0.5 L 45.99790719505443 0.5 L 45.99790719505443 -0.5 L 25 -0.5 Z M 74.67759469505444 0.5 L 95.67550189010886 0.5 L 95.67550189010886 3.5 L 102.67550189010886 0 L 95.67550189010886 -3.5 L 95.67550189010886 -0.5 L 74.67759469505444 -0.5 Z"/><text text-anchor="middle" pointer-events="none" font-size="8px" fill="#000000" x="60.33775094505443" y="3" font-family="sans-serif">platillo</text></g><g class="relationship" transform="translate(-62.691738269619705 94.47354291956665) rotate(321.0366922416058)"><path class="outline" fill="#A5ABB6" stroke="none" d="M 25 0.5 L 49.04533763829592 0.5 L 49.04533763829592 -0.5 L 25 -0.5 Z M 77.72502513829592 0.5 L 101.77036277659184 0.5 L 101.77036277659184 3.5 L 108.77036277659184 0 L 101.77036277659184 -3.5 L 101.77036277659184 -0.5 L 77.72502513829592 -0.5 Z"/><text text-anchor="middle" pointer-events="none" font-size="8px" fill="#000000" x="63.38518138829592" y="3" font-family="sans-serif">platillo</text></g><g class="relationship" transform="translate(-62.691738269619705 94.47354291956665) rotate(368.43494569554827)"><path class="outline" fill="#A5ABB6" stroke="none" d="M 25 0.5 L 29.350353137527613 0.5 L 29.350353137527613 -0.5 L 25 -0.5 Z M 58.03004063752761 0.5 L 62.380393775055225 0.5 L 62.380393775055225 3.5 L 69.38039377505523 0 L 62.380393775055225 -3.5 L 62.380393775055225 -0.5 L 58.03004063752761 -0.5 Z"/><text text-anchor="middle" pointer-events="none" font-size="8px" fill="#000000" x="43.69019688752761" y="3" font-family="sans-serif">platillo</text></g><g class="relationship" transform="translate(-62.691738269619705 94.47354291956665) rotate(452.14889053378283)"><path class="outline" fill="#A5ABB6" stroke="none" d="M 25 0.5 L 55.511370401898674 0.5 L 55.511370401898674 -0.5 L 25 -0.5 Z M 84.19105790189867 0.5 L 114.70242830379735 0.5 L 114.70242830379735 3.5 L 121.70242830379735 0 L 114.70242830379735 -3.5 L 114.70242830379735 -0.5 L 84.19105790189867 -0.5 Z"/><text text-anchor="middle" pointer-events="none" font-size="8px" fill="#000000" x="69.85121415189867" y="3" transform="rotate(180 69.85121415189867 0)" font-family="sans-serif">platillo</text></g><g class="relationship" transform="translate(-62.691738269619705 94.47354291956665) rotate(428.2348654374243)"><path class="outline" fill="#A5ABB6" stroke="none" d="M 25 0.5 L 46.52955581934343 0.5 L 46.52955581934343 -0.5 L 25 -0.5 Z M 75.20924331934343 0.5 L 96.73879913868686 0.5 L 96.73879913868686 3.5 L 103.73879913868686 0 L 96.73879913868686 -3.5 L 96.73879913868686 -0.5 L 75.20924331934343 -0.5 Z"/><text text-anchor="middle" pointer-events="none" font-size="8px" fill="#000000" x="60.86939956934343" y="3" font-family="sans-serif">platillo</text></g><g class="relationship" transform="translate(-62.691738269619705 94.47354291956665) rotate(270.46985319039857)"><path class="outline" fill="#A5ABB6" stroke="none" d="M 25 0.5 L 55.09665730363477 0.5 L 55.09665730363477 -0.5 L 25 -0.5 Z M 83.77634480363477 0.5 L 113.87300210726954 0.5 L 113.87300210726954 3.5 L 120.87300210726954 0 L 113.87300210726954 -3.5 L 113.87300210726954 -0.5 L 83.77634480363477 -0.5 Z"/><text text-anchor="middle" pointer-events="none" font-size="8px" fill="#000000" x="69.43650105363477" y="3" font-family="sans-serif">platillo</text></g><g class="relationship" transform="translate(-33.70136059900984 355.7317484662322) rotate(277.53639024389054)"><path class="outline" fill="#A5ABB6" stroke="none" d="M 25 0.5 L 53.62598745675916 0.5 L 53.62598745675916 -0.5 L 25 -0.5 Z M 82.30567495675916 0.5 L 110.93166241351832 0.5 L 110.93166241351832 3.5 L 117.93166241351832 0 L 110.93166241351832 -3.5 L 110.93166241351832 -0.5 L 82.30567495675916 -0.5 Z"/><text text-anchor="middle" pointer-events="none" font-size="8px" fill="#000000" x="67.96583120675916" y="3" font-family="sans-serif">platillo</text></g><g class="relationship" transform="translate(-33.70136059900984 355.7317484662322) rotate(253.25789575199025)"><path class="outline" fill="#A5ABB6" stroke="none" d="M 25 0.5 L 42.02733402205481 0.5 L 42.02733402205481 -0.5 L 25 -0.5 Z M 70.70702152205482 0.5 L 87.73435554410962 0.5 L 87.73435554410962 3.5 L 94.73435554410962 0 L 87.73435554410962 -3.5 L 87.73435554410962 -0.5 L 70.70702152205482 -0.5 Z"/><text text-anchor="middle" pointer-events="none" font-size="8px" fill="#000000" x="56.36717777205481" y="3" transform="rotate(180 56.36717777205481 0)" font-family="sans-serif">platillo</text></g><g class="relationship" transform="translate(-33.70136059900984 355.7317484662322) rotate(367.39168593076613)"><path class="outline" fill="#A5ABB6" stroke="none" d="M 25 0.5 L 52.45670742247805 0.5 L 52.45670742247805 -0.5 L 25 -0.5 Z M 81.13639492247805 0.5 L 108.5931023449561 0.5 L 108.5931023449561 3.5 L 115.5931023449561 0 L 108.5931023449561 -3.5 L 108.5931023449561 -0.5 L 81.13639492247805 -0.5 Z"/><text text-anchor="middle" pointer-events="none" font-size="8px" fill="#000000" x="66.79655117247805" y="3" font-family="sans-serif">platillo</text></g></g><g class="layer nodes"><g class="node" transform="translate(-68.19255457172817,241.07280448060337)"><circle class="outline" cx="0" cy="0" r="25" fill="#ECB5C9" stroke="#da7298" stroke-width="2px"/><text text-anchor="middle" pointer-events="none" font-family="sans-serif" dy="1.5625" font-size="25" fill="#2A2C34"/><text text-anchor="middle" pointer-events="none" x="0" y="5" font-size="10px" fill="#2A2C34" font-family="sans-serif"> pizza</text></g><g class="node" transform="translate(162.6427220671339,-185.00145650419867)"><circle class="outline" cx="0" cy="0" r="25" fill="#ECB5C9" stroke="#da7298" stroke-width="2px"/><text text-anchor="middle" pointer-events="none" font-family="sans-serif" dy="1.5625" font-size="25" fill="#2A2C34"/><text text-anchor="middle" pointer-events="none" x="0" y="5" font-size="10px" fill="#2A2C34" font-family="sans-serif"> Sushi</text></g><g class="node" transform="translate(219.444542637203,407.69773540331073)"><circle class="outline" cx="0" cy="0" r="25" fill="#ECB5C9" stroke="#da7298" stroke-width="2px"/><text text-anchor="middle" pointer-events="none" font-family="sans-serif" dy="1.5625" font-size="25" fill="#2A2C34"/><text text-anchor="middle" pointer-events="none" x="0" y="5" font-size="10px" fill="#2A2C34" font-family="sans-serif"> Pasta</text></g><g class="node" transform="translate(105.72339073911209,373.81928951752394)"><circle class="outline" cx="0" cy="0" r="25" fill="#ECB5C9" stroke="#da7298" stroke-width="2px"/><text text-anchor="middle" pointer-events="none" font-family="sans-serif" dy="1.5625" font-size="25" fill="#2A2C34"/><text text-anchor="middle" pointer-events="none" x="0" y="5" font-size="10px" fill="#2A2C34" font-family="sans-serif"> Lasaña</text></g><g class="node" transform="translate(222.62149719472674,140.06773339698827)"><circle class="outline" cx="0" cy="0" r="25" fill="#ECB5C9" stroke="#da7298" stroke-width="2px"/><text text-anchor="middle" pointer-events="none" font-family="sans-serif" dy="1.5625" font-size="25" fill="#2A2C34"/><text text-anchor="middle" pointer-events="none" x="0" y="5" font-size="10px" fill="#2A2C34" font-family="sans-serif"> Ensalada</text></g><g class="node" transform="translate(95.70288833603239,115.50058517690425)"><circle class="outline" cx="0" cy="0" r="25" fill="#ECB5C9" stroke="#da7298" stroke-width="2px"/><text text-anchor="middle" pointer-events="none" font-family="sans-serif" dy="1.5625" font-size="25" fill="#2A2C34"/><text text-anchor="middle" pointer-events="none" font-family="sans-serif" dy="1.5625" font-size="25" fill="#2A2C34"/><text text-anchor="middle" pointer-events="none" x="0" y="0" font-size="10px" fill="#2A2C34" font-family="sans-serif"> Ensalada</text><text text-anchor="middle" pointer-events="none" x="0" y="10" font-size="10px" fill="#2A2C34" font-family="sans-serif"> de pollo</text></g><g class="node" transform="translate(203.27589100528309,-7.053209774798039)"><circle class="outline" cx="0" cy="0" r="25" fill="#ECB5C9" stroke="#da7298" stroke-width="2px"/><text text-anchor="middle" pointer-events="none" font-family="sans-serif" dy="1.5625" font-size="25" fill="#2A2C34"/><text text-anchor="middle" pointer-events="none" font-family="sans-serif" dy="1.5625" font-size="25" fill="#2A2C34"/><text text-anchor="middle" pointer-events="none" x="0" y="0" font-size="10px" fill="#2A2C34" font-family="sans-serif"> Ensalada</text><text text-anchor="middle" pointer-events="none" x="0" y="10" font-size="10px" fill="#2A2C34" font-family="sans-serif"> de Atun</text></g><g class="node" transform="translate(-61.49552228591708,-51.39455438449706)"><circle class="outline" cx="0" cy="0" r="25" fill="#ECB5C9" stroke="#da7298" stroke-width="2px"/><text text-anchor="middle" pointer-events="none" font-family="sans-serif" dy="1.5625" font-size="25" fill="#2A2C34"/><text text-anchor="middle" pointer-events="none" x="0" y="5" font-size="10px" fill="#2A2C34" font-family="sans-serif"> Tacos</text></g><g class="node" transform="translate(-181.32820919202746,-61.82071232896915)"><circle class="outline" cx="0" cy="0" r="25" fill="#ECB5C9" stroke="#da7298" stroke-width="2px"/><text text-anchor="middle" pointer-events="none" font-family="sans-serif" dy="1.5625" font-size="25" fill="#2A2C34"/><text text-anchor="middle" pointer-events="none" font-family="sans-serif" dy="1.5625" font-size="25" fill="#2A2C34"/><text text-anchor="middle" pointer-events="none" x="0" y="0" font-size="10px" fill="#2A2C34" font-family="sans-serif"> Tacos de</text><text text-anchor="middle" pointer-events="none" x="0" y="10" font-size="10px" fill="#2A2C34" font-family="sans-serif"> res</text></g><g class="node" transform="translate(-91.43078513356001,-166.67177676939946)"><circle class="outline" cx="0" cy="0" r="25" fill="#ECB5C9" stroke="#da7298" stroke-width="2px"/><text text-anchor="middle" pointer-events="none" font-family="sans-serif" dy="1.5625" font-size="25" fill="#2A2C34"/><text text-anchor="middle" pointer-events="none" font-family="sans-serif" dy="1.5625" font-size="25" fill="#2A2C34"/><text text-anchor="middle" pointer-events="none" x="0" y="0" font-size="10px" fill="#2A2C34" font-family="sans-serif"> Tacos al</text><text text-anchor="middle" pointer-events="none" x="0" y="10" font-size="10px" fill="#2A2C34" font-family="sans-serif"> pastor</text></g><g class="node" transform="translate(-14.955035236482585,214.03476400398532)"><circle class="outline" cx="0" cy="0" r="25" fill="#ECB5C9" stroke="#da7298" stroke-width="2px"/><text text-anchor="middle" pointer-events="none" font-family="sans-serif" dy="1.5625" font-size="25" fill="#2A2C34"/><text text-anchor="middle" pointer-events="none" x="0" y="5" font-size="10px" fill="#2A2C34" font-family="sans-serif"> Hambur…</text></g><g class="node" transform="translate(82.39622096470065,-95.25859488257377)"><circle class="outline" cx="0" cy="0" r="25" fill="#ECB5C9" stroke="#da7298" stroke-width="2px"/><text text-anchor="middle" pointer-events="none" font-family="sans-serif" dy="1.5625" font-size="25" fill="#2A2C34"/><text text-anchor="middle" pointer-events="none" x="0" y="5" font-size="10px" fill="#2A2C34" font-family="sans-serif"> Mariscos</text></g><g class="node" transform="translate(15.359817707822556,321.3323358188628)"><circle class="outline" cx="0" cy="0" r="25" fill="#ECB5C9" stroke="#da7298" stroke-width="2px"/><text text-anchor="middle" pointer-events="none" font-family="sans-serif" dy="1.5625" font-size="25" fill="#2A2C34"/><text text-anchor="middle" pointer-events="none" x="0" y="5" font-size="10px" fill="#2A2C34" font-family="sans-serif"> Pan</text></g><g class="node" transform="translate(-9.481276074367036,-21.585409754747857)"><circle class="outline" cx="0" cy="0" r="25" fill="#ECB5C9" stroke="#da7298" stroke-width="2px"/><text text-anchor="middle" pointer-events="none" font-family="sans-serif" dy="1.5625" font-size="25" fill="#2A2C34"/><text text-anchor="middle" pointer-events="none" x="0" y="5" font-size="10px" fill="#2A2C34" font-family="sans-serif"> Curry</text></g><g class="node" transform="translate(41.32124934019946,10.355718614247223)"><circle class="outline" cx="0" cy="0" r="25" fill="#ECB5C9" stroke="#da7298" stroke-width="2px"/><text text-anchor="middle" pointer-events="none" font-family="sans-serif" dy="1.5625" font-size="25" fill="#2A2C34"/><text text-anchor="middle" pointer-events="none" x="0" y="5" font-size="10px" fill="#2A2C34" font-family="sans-serif"> Chaomin</text></g><g class="node" transform="translate(344.26379430370093,119.57745404217826)"><circle class="outline" cx="0" cy="0" r="25" fill="#ECB5C9" stroke="#da7298" stroke-width="2px"/><text text-anchor="middle" pointer-events="none" font-family="sans-serif" dy="1.5625" font-size="25" fill="#2A2C34"/><text text-anchor="middle" pointer-events="none" x="0" y="5" font-size="10px" fill="#2A2C34" font-family="sans-serif"> Lechuga</text></g><g class="node" transform="translate(109.91942896705747,245.8202694194156)"><circle class="outline" cx="0" cy="0" r="25" fill="#ECB5C9" stroke="#da7298" stroke-width="2px"/><text text-anchor="middle" pointer-events="none" font-family="sans-serif" dy="1.5625" font-size="25" fill="#2A2C34"/><text text-anchor="middle" pointer-events="none" x="0" y="5" font-size="10px" fill="#2A2C34" font-family="sans-serif"> Tomate</text></g><g class="node" transform="translate(-62.691738269619705,94.47354291956665)"><circle class="outline" cx="0" cy="0" r="25" fill="#ECB5C9" stroke="#da7298" stroke-width="2px"/><text text-anchor="middle" pointer-events="none" font-family="sans-serif" dy="1.5625" font-size="25" fill="#2A2C34"/><text text-anchor="middle" pointer-events="none" x="0" y="5" font-size="10px" fill="#2A2C34" font-family="sans-serif"> Carne</text></g><g class="node" transform="translate(30.66774754051758,108.31786082985961)"><circle class="outline" cx="0" cy="0" r="25" fill="#ECB5C9" stroke="#da7298" stroke-width="2px"/><text text-anchor="middle" pointer-events="none" font-family="sans-serif" dy="1.5625" font-size="25" fill="#2A2C34"/><text text-anchor="middle" pointer-events="none" x="0" y="5" font-size="10px" fill="#2A2C34" font-family="sans-serif"> Milanesa</text></g><g class="node" transform="translate(-33.70136059900984,355.7317484662322)"><circle class="outline" cx="0" cy="0" r="25" fill="#ECB5C9" stroke="#da7298" stroke-width="2px"/><text text-anchor="middle" pointer-events="none" font-family="sans-serif" dy="1.5625" font-size="25" fill="#2A2C34"/><text text-anchor="middle" pointer-events="none" x="0" y="5" font-size="10px" fill="#2A2C34" font-family="sans-serif"> Queso</text></g></g></svg>